<svg width="70" height="59" viewBox="0 0 70 59" fill="none" xmlns="http://www.w3.org/2000/svg">
<g id="icon2" clip-path="url(#clip0_43_355)">
<path id="Vector" d="M39.8076 6.97497C39.0302 6.18315 38.6133 5.13567 38.6336 4.02532C38.6742 1.80576 40.5599 0 42.8373 0H54.7545C55.2993 0 55.741 0.441714 55.741 0.986599C55.741 1.53148 55.2993 1.9732 54.7545 1.9732H42.8373C41.6281 1.9732 40.6272 2.9099 40.6061 4.0614C40.5956 4.63786 40.8118 5.1819 41.2155 5.5926C41.6191 6.00359 42.1583 6.22995 42.7341 6.22995H49.0799C50.8446 6.22995 52.3139 7.57313 52.4249 9.28812C52.4841 10.204 52.1724 11.0758 51.5467 11.7431C50.93 12.401 50.0596 12.7781 49.1579 12.7781H45.8974C45.0997 12.7781 44.4506 13.4273 44.4506 14.2251V14.6143C44.4506 15.1592 44.0089 15.6009 43.4641 15.6009C42.9193 15.6009 42.4776 15.1592 42.4776 14.6143V14.2251C42.4776 12.3392 44.0115 10.8049 45.8974 10.8049H49.1579C49.5212 10.8049 49.8583 10.6586 50.1072 10.3934C50.3558 10.1284 50.4793 9.78114 50.4556 9.41553C50.4125 8.7469 49.7949 8.20314 49.0796 8.20314H42.7338C41.6241 8.20314 40.5852 7.76707 39.8076 6.97497ZM70.0002 30.1891C70.0002 33.7388 67.1126 36.6268 63.5631 36.6268C62.7432 36.6268 61.9416 36.4717 61.1916 36.1741V37.9764C61.1916 42.0897 57.8454 45.4362 53.7325 45.4362H49.0119C48.4671 45.4362 48.0254 44.9945 48.0254 44.4496C48.0254 43.9048 48.4671 43.463 49.0119 43.463H53.7325C56.7574 43.463 59.2186 41.0019 59.2186 37.9764V20.0787H31.3107V24.884C31.3107 25.4289 30.869 25.8706 30.3242 25.8706C29.7793 25.8706 29.3377 25.4289 29.3377 24.884V19.0921C29.3377 18.5472 29.7793 18.1055 30.3242 18.1055H60.2051C60.7499 18.1055 61.1916 18.5472 61.1916 19.0921V24.2108C61.9444 23.9129 62.7511 23.7514 63.5631 23.7514C67.1126 23.7514 70.0002 26.6393 70.0002 30.1891ZM68.0272 30.1891C68.0272 27.7274 66.0249 25.7246 63.5631 25.7246C62.728 25.7246 61.8988 25.965 61.1916 26.407V33.9677C61.9036 34.4151 62.7192 34.6533 63.5631 34.6533C66.0246 34.6533 68.0272 32.6508 68.0272 30.1891ZM47.8831 54.5829C47.9755 55.8381 47.4989 57.0488 46.5753 57.9038C45.8064 58.6155 44.8159 59 43.7874 59C43.5805 59 43.3722 58.9845 43.1637 58.9529L41.1472 58.6476C38.7478 58.284 36.445 57.3335 34.4881 55.8981L32.5796 54.4986L32.3242 54.7252C31.3073 55.6275 30.0308 56.0904 28.7438 56.0904C28.0239 56.0904 27.301 55.9449 26.6177 55.6512L26.306 56.432C26.3018 56.4427 26.2973 56.4532 26.2928 56.4633C25.9449 57.2537 25.1845 57.7467 24.3082 57.7498H24.2992C23.4263 57.7498 22.6661 57.263 22.3135 56.478C22.3084 56.4667 22.3036 56.4554 22.2991 56.4441L21.9008 55.4612C21.1054 55.8812 20.2416 56.0901 19.3819 56.0901C18.0946 56.0901 16.8187 55.6272 15.8014 54.7249L15.4415 54.4056L13.4071 55.8979C11.4498 57.3332 9.14706 58.284 6.7476 58.6474L4.73119 58.9526C4.52289 58.9842 4.31432 58.9997 4.10772 58.9997C3.0795 58.9997 2.08877 58.6155 1.31986 57.9035C0.39621 57.0482 -0.0804124 55.8378 0.0117551 54.5823C0.236396 51.5269 1.36777 48.6483 3.28328 46.2577L4.66523 44.5328C3.53414 42.7115 3.51159 40.3271 4.745 38.4703C5.92514 36.6944 7.59684 35.3414 9.57943 34.5574C10.0862 34.357 10.6592 34.6054 10.8596 35.1122C11.06 35.619 10.8117 36.1921 10.3049 36.3925C8.69862 37.0276 7.34429 38.1236 6.38823 39.5623C5.39412 41.0591 5.65765 43.0867 7.00183 44.2794L17.1107 53.2484C18.2327 54.2438 19.8523 54.3968 21.1407 53.6281C21.1455 53.6253 21.1508 53.6239 21.1556 53.6211L15.4009 39.4143C13.5807 35.3439 14.6946 31.0784 18.0532 29.2667C20.0209 28.2054 22.2385 27.6445 24.4663 27.6445C26.3886 27.6445 28.2542 28.0459 30.0113 28.8371C32.1619 29.806 33.5216 31.7279 33.9094 34.0035L33.9407 33.9999C35.5405 33.8065 37.1333 33.999 38.5465 34.5574C40.5294 35.3414 42.2011 36.6944 43.3807 38.4703C44.6505 40.3815 44.5885 42.8514 43.3567 44.6912L44.6118 46.2574C46.5276 48.6478 47.659 51.5264 47.8831 54.582V54.5829ZM13.9316 53.0663L5.99701 46.0265L4.82279 47.492C3.15785 49.5698 2.17445 52.0718 1.97941 54.7275C1.93149 55.3806 2.17924 56.0109 2.66009 56.4557C3.14066 56.9008 3.78781 57.0987 4.43552 57.002L6.45193 56.6967C8.5374 56.3807 10.5389 55.5545 12.2402 54.3069L13.9316 53.0663ZM24.4827 55.6777L31.3764 38.4181C31.3806 38.4077 31.3851 38.3973 31.3896 38.3869C32.5934 35.6503 32.2355 32.0044 29.201 30.6376C27.7004 29.9616 26.1073 29.6188 24.4663 29.6188C22.5643 29.6188 20.6705 30.098 18.9898 31.0046C16.2397 32.4881 16.012 35.9604 17.2082 38.6239C17.2133 38.6352 17.2181 38.6465 17.2229 38.6577L24.1182 55.6797C24.1597 55.7603 24.2298 55.7769 24.3009 55.7772C24.362 55.7772 24.4421 55.7594 24.4827 55.678V55.6777ZM31.015 53.249L41.1241 44.28C42.468 43.0876 42.7316 41.0597 41.7375 39.5629C40.7817 38.1241 39.4276 37.0282 37.8208 36.3931C36.7128 35.9548 35.4523 35.8048 34.1777 35.9593L34.0036 35.9804C33.9303 37.0234 33.6684 38.1007 33.2022 39.1651L27.3509 53.8156C28.569 54.3588 29.9967 54.1521 31.015 53.249ZM45.9157 54.7275C45.7207 52.0718 44.737 49.5698 43.0721 47.492L41.9937 46.146L34.0898 53.1588L35.6552 54.3069C37.356 55.5542 39.3577 56.3804 41.4432 56.6967L43.4596 57.002C44.1068 57.0992 44.7542 56.9011 45.235 56.456C45.7156 56.0109 45.9636 55.3809 45.9157 54.7275ZM61.8599 49.2065H51.4452C50.9004 49.2065 50.4587 49.6482 50.4587 50.1931C50.4587 50.7379 50.9004 51.1797 51.4452 51.1797H61.8599C62.4047 51.1797 62.8464 50.7379 62.8464 50.1931C62.8464 49.6482 62.4047 49.2065 61.8599 49.2065Z" fill="url(#paint0_linear_43_355)"/>
</g>
<defs>
<linearGradient id="paint0_linear_43_355" x1="23.0894" y1="59" x2="66.0896" y2="34.9606" gradientUnits="userSpaceOnUse">
<stop stop-color="#E3077F"/>
<stop offset="1" stop-color="#0289CC"/>
</linearGradient>
<clipPath id="clip0_43_355">
<rect width="70" height="59" fill="white"/>
</clipPath>
</defs>
</svg>
