<svg width="15" height="10" viewBox="0 0 15 10" fill="none" xmlns="http://www.w3.org/2000/svg">
<path id="Vector" d="M14.6865 1.56154C14.514 0.946865 14.0058 0.462837 13.3604 0.298591C12.1905 0 7.49995 0 7.49995 0C7.49995 0 2.80937 0 1.63946 0.298591C0.994203 0.462837 0.485875 0.946865 0.313367 1.56154C0 2.6756 0 5.00006 0 5.00006C0 5.00006 0 7.32452 0.313367 8.43848C0.485875 9.05316 0.994203 9.53728 1.63946 9.70155C2.80937 10 7.49995 10 7.49995 10C7.49995 10 12.1905 10 13.3604 9.70155C14.0058 9.53731 14.514 9.05316 14.6865 8.43848C15 7.32452 15 5.00006 15 5.00006C15 5.00006 15 2.6756 14.6865 1.56154ZM5.24394 7.8629V2.37718L11.1568 5.00006L5.24394 7.8629Z" fill="white"/>
</svg>
