<svg width="26" height="26" viewBox="0 0 26 26" fill="none" xmlns="http://www.w3.org/2000/svg">
<circle cx="13" cy="13" r="13" fill="url(#paint0_linear_78_848)"/>
<path d="M5.50648 9C6.03099 9 6.83025 9 7.27983 9C7.50462 9 7.67945 9.14986 7.75438 9.34967C7.97917 9.99907 8.47871 11.4227 9.05317 12.3968C9.82745 13.6706 10.327 14.1452 10.6517 14.0952C10.9764 14.0203 10.8765 13.1711 10.8765 12.4967C10.8765 11.8224 10.9514 10.6734 10.6267 10.1489L10.1272 9.4246C10.0023 9.24977 10.1272 9.02498 10.327 9.02498H13.1743C13.4491 9.02498 13.6739 9.24977 13.6739 9.52451V13.1461C13.6739 13.1461 13.7987 13.7955 14.4981 13.1212C15.1974 12.4468 15.9467 11.1979 16.5712 9.92414L16.8209 9.3247C16.8959 9.14986 17.0707 9.02498 17.2705 9.02498H19.1188C19.4685 9.02498 19.7182 9.37465 19.5933 9.69935L19.3935 10.2239C19.3935 10.2239 18.7192 11.5726 18.0198 12.5217C17.3205 13.4958 17.1706 13.7206 17.2705 13.9704C17.3704 14.2201 19.1687 15.8936 19.6183 16.6928C19.7432 16.9176 19.8431 17.1174 19.943 17.2923C20.1178 17.617 19.8681 18.0416 19.4934 18.0416H17.3954C17.2205 18.0416 17.0457 17.9417 16.9708 17.7918L16.771 17.4671C16.771 17.4671 15.4972 15.9685 14.7229 15.4939C13.9236 15.0444 13.9486 15.6938 13.9486 15.6938V17.0175C13.9486 17.567 13.499 18.0166 12.9495 18.0166H12.45C12.45 18.0166 9.70257 18.0166 7.50462 14.7446C5.78123 12.197 5.20676 10.5486 5.00695 9.59944C4.957 9.29972 5.18179 9 5.50648 9Z" fill="white"/>
<defs>
<linearGradient id="paint0_linear_78_848" x1="8.57591" y1="26" x2="25.7304" y2="17.9167" gradientUnits="userSpaceOnUse">
<stop stop-color="#E3077F"/>
<stop offset="1" stop-color="#0289CC"/>
</linearGradient>
</defs>
</svg>
