<svg width="25" height="25" fill="none" xmlns="http://www.w3.org/2000/svg"><path d="M18.227 14.981c-.314-.156-1.84-.903-2.125-1.006-.284-.105-.493-.156-.701.156-.205.307-.803 1.004-.983 1.21-.183.204-.364.22-.673.079-.313-.156-1.316-.485-2.503-1.547-.925-.828-1.546-1.844-1.73-2.156-.18-.313-.02-.485.136-.641.142-.14.313-.36.47-.545.152-.188.202-.313.31-.516.103-.22.05-.391-.027-.546-.078-.156-.7-1.688-.96-2.298-.25-.609-.508-.531-.7-.531-.18-.016-.387-.016-.595-.016-.209 0-.545.077-.83.374-.285.312-1.089 1.062-1.089 2.578 0 1.516 1.115 2.984 1.27 3.203.155.203 2.193 3.328 5.312 4.672.744.313 1.323.5 1.775.655.744.237 1.422.203 1.959.126.598-.095 1.84-.75 2.1-1.485.265-.735.265-1.344.187-1.485-.077-.14-.281-.218-.593-.359m-5.673 7.753h-.017c-1.844 0-3.671-.5-5.266-1.437l-.375-.223L3 22.012l1.047-3.797-.25-.391a10.28 10.28 0 0 1-1.578-5.48c0-5.671 4.64-10.296 10.356-10.296 2.765 0 5.36 1.078 7.314 3.031a10.196 10.196 0 0 1 3.03 7.281c-.004 5.671-4.646 10.297-10.35 10.297m8.806-19.064C19 1.297 15.875 0 12.547 0 5.69 0 .108 5.556.105 12.389c0 2.183.572 4.312 1.662 6.192L0 25l6.599-1.72a12.565 12.565 0 0 0 5.948 1.506h.006c6.86 0 12.444-5.558 12.447-12.391 0-3.309-1.292-6.422-3.64-8.762" fill="#000"/></svg>