<svg xmlns="http://www.w3.org/2000/svg" width="20" height="15" viewBox="0 0 20 15" fill="none">
    <path fill-rule="evenodd" clip-rule="evenodd" d="M1.50289 0.809249H18.4971C18.5036 0.809249 18.5101 0.809338 18.5166 0.809516L9.96956 7.4091L1.33942 0.828621C1.39184 0.815958 1.44658 0.809249 1.50289 0.809249ZM0.811721 1.44391C0.810084 1.46335 0.809249 1.48302 0.809249 1.50289V13.2948C0.809249 13.328 0.811588 13.3608 0.816112 13.3928L5.06863 8.43599C5.21414 8.26639 5.46959 8.24685 5.63919 8.39236C5.8088 8.53787 5.82833 8.79332 5.68282 8.96292L1.38054 13.9777C1.42026 13.9848 1.46114 13.9884 1.50289 13.9884H18.4971C18.5068 13.9884 18.5164 13.9882 18.526 13.9878L14.3436 9.01779C14.1997 8.84681 14.2217 8.59156 14.3927 8.44767C14.5636 8.30379 14.8189 8.32575 14.9628 8.49673L19.1634 13.4884C19.1812 13.4269 19.1908 13.362 19.1908 13.2948V1.50289C19.1908 1.44264 19.1831 1.38417 19.1686 1.32843L10.2184 8.23937C10.0734 8.3513 9.87139 8.35191 9.72576 8.24087L0.811721 1.44391ZM0 1.50289C0 0.672867 0.672867 0 1.50289 0H18.4971C19.3271 0 20 0.672867 20 1.50289V13.2948C20 14.1248 19.3271 14.7977 18.4971 14.7977H1.50289C0.672867 14.7977 0 14.1248 0 13.2948V1.50289Z" fill="url(#paint0_linear_72_382)"/>
    <defs>
      <linearGradient id="paint0_linear_72_382" x1="6.59685" y1="14.7977" x2="18.0693" y2="7.49129" gradientUnits="userSpaceOnUse">
        <stop stop-color="#E3077F"/>
        <stop offset="1" stop-color="#0289CC"/>
      </linearGradient>
    </defs>
  </svg>