<svg width="26" height="26" viewBox="0 0 26 26" fill="none" xmlns="http://www.w3.org/2000/svg">
<circle cx="13" cy="13" r="13" fill="url(#paint0_linear_78_846)"/>
<g clip-path="url(#clip0_78_846)">
<path d="M19.6865 9.56154C19.514 8.94686 19.0058 8.46284 18.3604 8.29859C17.1905 8 12.4999 8 12.4999 8C12.4999 8 7.80937 8 6.63946 8.29859C5.9942 8.46284 5.48588 8.94686 5.31337 9.56154C5 10.6756 5 13.0001 5 13.0001C5 13.0001 5 15.3245 5.31337 16.4385C5.48588 17.0532 5.9942 17.5373 6.63946 17.7016C7.80937 18 12.4999 18 12.4999 18C12.4999 18 17.1905 18 18.3604 17.7016C19.0058 17.5373 19.514 17.0532 19.6865 16.4385C20 15.3245 20 13.0001 20 13.0001C20 13.0001 20 10.6756 19.6865 9.56154ZM10.2439 15.8629V10.3772L16.1568 13.0001L10.2439 15.8629Z" fill="white"/>
</g>
<defs>
<linearGradient id="paint0_linear_78_846" x1="8.57591" y1="26" x2="25.7304" y2="17.9167" gradientUnits="userSpaceOnUse">
<stop stop-color="#E3077F"/>
<stop offset="1" stop-color="#0289CC"/>
</linearGradient>
<clipPath id="clip0_78_846">
<rect width="15" height="10" fill="white" transform="translate(5 8)"/>
</clipPath>
</defs>
</svg>
