<svg width="56" height="56" fill="none" xmlns="http://www.w3.org/2000/svg"><path d="M47.563 22.757a.916.916 0 0 1-.643 1.56.906.906 0 0 1-.644-.268l-2.095-2.104-4.271 4.29a.907.907 0 0 1-1.287 0 .916.916 0 0 1 0-1.292l4.272-4.29-7.564-7.594-4.684 4.703 2.866 2.877a.916.916 0 0 1-.643 1.56.906.906 0 0 1-.644-.268l-2.865-2.877-4.145 4.16 2.865 2.878a.916.916 0 0 1-.643 1.56.906.906 0 0 1-.643-.268l-2.866-2.877-4.234 4.251 2.865 2.877a.916.916 0 0 1 0 1.292.905.905 0 0 1-1.287 0l-2.865-2.877-4.078 4.094 7.564 7.594.737-.74a.907.907 0 0 1 1.287 0 .916.916 0 0 1 0 1.292l-1.38 1.386a.905.905 0 0 1-1.288 0l-5.743-5.766-5.367 5.99 2.037 2.045 3.513-3.173a.907.907 0 0 1 1.285.069.916.916 0 0 1-.068 1.29l-4.155 3.752a.905.905 0 0 1-1.252-.033l-1.048-1.053-8.899 8.936a.905.905 0 0 1-1.286 0 .916.916 0 0 1 0-1.292l8.9-8.936-.923-.926a.916.916 0 0 1-.033-1.256l6.008-6.707-1.818-1.825a.916.916 0 0 1 0-1.292l21.643-21.731-2.042-2.05a.916.916 0 0 1 0-1.292.907.907 0 0 1 1.287 0l2.685 2.696 8.85 8.886 2.739 2.75v-.001zm8.17-12.169L52.905 7.75l-4.668-4.687L45.453.268a.907.907 0 0 0-1.286 0 .916.916 0 0 0 0 1.291l2.14 2.149-6.023 6.047a.916.916 0 0 0 0 1.292.907.907 0 0 0 1.287 0L47.593 5l3.382 3.395-6.022 6.047a.916.916 0 0 0 .643 1.56c.233 0 .466-.09.644-.268l6.022-6.047 2.185 2.193a.904.904 0 0 0 1.286 0 .916.916 0 0 0 0-1.292zM45.72 37.653c0 5.922-4.798 10.739-10.695 10.739-5.898 0-10.696-4.817-10.696-10.739 0-5.921 4.798-10.739 10.696-10.739 5.897 0 10.695 4.818 10.695 10.74zm-19.57 0a8.89 8.89 0 0 0 1.992 5.619l12.479-12.53a8.811 8.811 0 0 0-5.596-2c-4.894 0-8.876 3.997-8.876 8.911zm17.75 0a8.89 8.89 0 0 0-1.993-5.619L29.43 44.563a8.811 8.811 0 0 0 5.596 2c4.893 0 8.875-3.997 8.875-8.91z" fill="url(#a)"/><defs><linearGradient id="a" x1="0" y1="28" x2="55.999" y2="28" gradientUnits="userSpaceOnUse"><stop stop-color="#E5007D"/><stop offset="1" stop-color="#008BD2"/></linearGradient></defs></svg>