<svg width="69" height="92" viewBox="0 0 69 92" fill="none" xmlns="http://www.w3.org/2000/svg">
<g id="logo-bw" clip-path="url(#clip0_8_774)">
<path id="Vector" d="M68.997 83.2112H68.0796L65.1041 88.1038L62.1286 83.2112H61.1493L64.6205 88.913V91.9258H65.5255V88.913L68.9967 83.2112H68.997ZM56.8103 88.3776H54.5043V84.0079H56.8103C57.389 84.0079 57.8764 84.095 58.2692 84.2652C58.6637 84.4374 58.9614 84.6843 59.1618 85.0102C59.3623 85.3358 59.4635 85.7323 59.4635 86.1991C59.4635 86.6575 59.3623 87.0477 59.1618 87.3735C58.9614 87.6974 58.6637 87.9443 58.2692 88.1162C57.8766 88.2884 57.389 88.3755 56.8103 88.3776ZM60.5172 91.9255L58.3972 88.9376C58.8208 88.8007 59.1782 88.6036 59.4736 88.3484C59.769 88.0951 59.9924 87.786 60.1472 87.4271C60.3022 87.0662 60.3806 86.6553 60.3806 86.1988C60.3786 85.5743 60.2339 85.0389 59.9529 84.5949C59.6699 84.1489 59.2629 83.8085 58.7358 83.5698C58.2069 83.3333 57.5726 83.2129 56.8348 83.2109H53.5867V91.9255H54.504V89.1619H56.8348C56.9587 89.1619 57.0766 89.1578 57.1922 89.1515C57.3058 89.1451 57.4173 89.137 57.5288 89.1246L59.5126 91.9258H60.5167L60.5172 91.9255ZM46.2107 91.1288V87.8919H50.6984V87.1076H46.2107V84.0077H51.244V83.2109H45.2933V91.9255H51.4302V91.1288H46.2107ZM42.9254 83.2112L39.5781 90.7803L36.2556 83.2112H35.2639L39.1069 91.9258H40.0119L43.8552 83.2112H42.9254ZM30.0322 91.1788C29.5054 91.1768 29.0198 91.0854 28.5776 90.9071C28.1332 90.7285 27.747 90.4776 27.4184 90.1537C27.0899 89.8301 26.8337 89.4484 26.6518 89.0105C26.47 88.5706 26.3769 88.0913 26.3749 87.5684C26.3769 87.0454 26.47 86.5661 26.6518 86.1262C26.8337 85.6886 27.0899 85.3066 27.4184 84.983C27.747 84.6592 28.1332 84.4082 28.5776 84.2299C29.0198 84.0514 29.5054 83.9602 30.0322 83.9581C30.555 83.9602 31.0384 84.0516 31.4787 84.2299C31.9188 84.4082 32.303 84.6594 32.6296 84.983C32.9561 85.3068 33.2103 85.6886 33.3899 86.1262C33.5717 86.5661 33.6628 87.0454 33.6648 87.5684C33.6628 88.0913 33.572 88.5706 33.3899 89.0105C33.2101 89.4484 32.9561 89.8301 32.6296 90.1537C32.303 90.4773 31.9188 90.7285 31.4787 90.9071C31.0386 91.0854 30.555 91.1768 30.0322 91.1788ZM30.0322 92.0005C30.6873 91.9964 31.2906 91.8864 31.8422 91.6665C32.3938 91.4486 32.8734 91.1395 33.2844 90.7409C33.6934 90.3447 34.0116 89.8759 34.237 89.3384C34.4643 88.7989 34.5779 88.2097 34.582 87.5686C34.5779 86.9275 34.4641 86.3383 34.237 85.7988C34.0118 85.2614 33.6937 84.7925 33.2844 84.3963C32.8732 83.998 32.3938 83.6887 31.8422 83.471C31.2906 83.251 30.6873 83.139 30.0322 83.137C29.3711 83.139 28.7656 83.251 28.2099 83.4733C27.656 83.6932 27.1746 84.0023 26.7656 84.4008C26.3566 84.7991 26.0385 85.2682 25.8131 85.8054C25.5877 86.3429 25.4742 86.9301 25.4701 87.5691C25.4742 88.2082 25.5877 88.7954 25.8131 89.3328C26.0382 89.8703 26.3564 90.3391 26.7656 90.7376C27.1746 91.1359 27.6562 91.4453 28.2099 91.6652C28.7656 91.8872 29.3711 91.9972 30.0322 92.0012V92.0005ZM21.0937 92.0005C21.5214 92.0005 21.9283 91.9527 22.3168 91.8552C22.7053 91.7597 23.0648 91.6167 23.3953 91.4277C23.7279 91.2367 24.0213 91.0003 24.2798 90.7181L23.6971 90.1329C23.3437 90.4981 22.9512 90.7638 22.5215 90.9317C22.0917 91.0975 21.6268 91.1806 21.1308 91.1786C20.604 91.1765 20.1184 91.0851 19.6742 90.9048C19.2278 90.7265 18.8416 90.4732 18.511 90.1494C18.1804 89.8235 17.9222 89.4418 17.7403 89.0042C17.5564 88.5663 17.4634 88.087 17.4613 87.5684C17.4634 87.0497 17.5564 86.5704 17.7403 86.1325C17.9222 85.6947 18.1804 85.3129 18.511 84.9873C18.8416 84.6637 19.228 84.4105 19.6742 84.2319C20.1184 84.0514 20.604 83.9602 21.1308 83.9579C21.6268 83.9559 22.0915 84.0369 22.5215 84.2027C22.9512 84.3688 23.3437 84.6322 23.6971 84.9911L24.2798 84.4059C24.0216 84.1237 23.7282 83.8893 23.3953 83.7006C23.0648 83.5119 22.7051 83.3707 22.3209 83.2774C21.9344 83.184 21.5295 83.1362 21.1061 83.1362C20.4489 83.1383 19.8437 83.2503 19.292 83.4702C18.7384 83.6882 18.2588 83.9973 17.8498 84.3955C17.4429 84.7917 17.1247 85.2609 16.8993 85.798C16.674 86.3375 16.5604 86.9268 16.5563 87.5678C16.5604 88.2089 16.674 88.7982 16.8993 89.3376C17.1244 89.8751 17.4406 90.344 17.8498 90.7402C18.2568 91.1387 18.7364 91.4478 19.286 91.6657C19.8376 91.8857 20.4388 91.9957 21.0939 91.9997L21.0937 92.0005ZM9.94853 91.129V87.8922H14.4363V87.1079H9.94853V84.0079H14.9818V83.2112H9.03115V91.9258H15.1678V91.129H9.94853ZM3.29114 88.3778H0.984915V84.0082H3.29063C3.86934 84.0082 4.35673 84.0953 4.74954 84.2655C5.14411 84.4377 5.44181 84.6846 5.64213 85.0104C5.8427 85.336 5.94387 85.7325 5.94387 86.1993C5.94387 86.6578 5.8427 87.0479 5.64213 87.3738C5.44181 87.6976 5.14411 87.9445 4.74954 88.1165C4.35699 88.2887 3.86934 88.3758 3.29063 88.3778H3.29114ZM6.99809 91.9258L4.87802 88.9379C5.30168 88.801 5.65907 88.6039 5.9545 88.3486C6.24992 88.0954 6.47326 87.7863 6.62805 87.4274C6.7831 87.0665 6.86151 86.6555 6.86151 86.1991C6.85948 85.5745 6.71481 85.0391 6.4338 84.5951C6.15077 84.1491 5.74381 83.8088 5.2167 83.57C4.68782 83.3336 4.05347 83.2132 3.31567 83.2112H0.0675354V91.9258H0.984915V89.1621H3.31567C3.43961 89.1621 3.55747 89.1581 3.67306 89.1517C3.78663 89.1454 3.89817 89.1373 4.00971 89.1248L5.99345 91.9261H6.99758L6.99809 91.9258Z" fill="#EAEFF3"/>
<path id="Vector_2" fill-rule="evenodd" clip-rule="evenodd" d="M24.5479 24.9635C24.7265 25.0422 24.9023 25.1316 25.0748 25.2307V44.1499C24.7118 44.3424 24.3332 44.5113 23.9366 44.6594V24.7326C24.1496 24.8017 24.3539 24.8782 24.5479 24.9635ZM28.2258 28.2303C27.9582 27.8788 27.6658 27.5176 27.3512 27.1656V42.4083C27.3977 42.359 27.4437 42.309 27.4898 42.2579C28.65 40.9725 29.6516 39.4874 30.1458 37.8106C30.4076 36.9221 30.4658 35.9084 30.4658 34.9864C30.4658 33.764 30.2824 32.5621 29.9043 31.4004C29.5292 30.2483 28.9588 29.1929 28.2258 28.2303ZM18.1189 24.7001V45.4856C18.1227 45.5016 18.1349 45.5214 18.1518 45.5428C19.1028 45.54 20.0721 45.523 21.0147 45.4394C21.228 45.4206 21.4437 45.3856 21.6602 45.3401V24.2777C20.6943 24.1708 19.7192 24.1444 18.8858 24.1444C18.4002 24.1444 18.1187 24.182 18.1187 24.7004L18.1189 24.7001ZM12.2707 20.9858C11.4646 20.9858 11.0614 21.1762 11.0614 21.5572C11.0614 21.7952 11.18 22.224 11.417 22.8429C11.5119 23.0809 11.5594 23.2714 11.5594 23.4144V69.1311C11.5594 69.3216 11.4646 69.5598 11.2749 69.8453C11.1325 70.0836 11.0614 70.3215 11.0614 70.5598C11.0614 70.9408 11.5119 71.131 12.4128 71.131C12.5552 71.131 12.8279 71.0835 13.2308 70.9883C13.634 70.893 13.8356 70.7025 13.8356 70.4168V21.9857C13.8356 21.319 13.314 20.9855 12.2704 20.9855L12.2707 20.9858ZM42.3252 29.3433C43.2972 31.153 43.7833 33.1529 43.7833 35.3436C43.5936 37.0102 43.0721 38.6533 42.2184 40.2722C41.6018 41.4152 40.606 42.8914 39.2308 44.7011C40.1791 44.3678 41.1986 43.582 42.2895 42.3438C43.0007 41.4866 43.4988 40.8915 43.7833 40.558C44.7794 38.9865 45.2771 37.0816 45.2771 34.8435C45.2771 32.6053 44.7794 30.6526 43.7833 28.9859C43.0721 27.7955 42.4319 26.9146 41.8626 26.3432C41.5307 25.9622 40.5584 25.2477 38.946 24.2003C38.4718 24.0573 38.1872 23.9859 38.0924 23.9859C38.0924 24.1289 38.1161 24.2716 38.1637 24.4144C39.9656 25.8906 41.3526 27.5336 42.3249 29.343L42.3252 29.3433ZM33.1132 44.1893C31.9277 45.2489 30.5998 46.1297 29.1298 46.8442C28.7504 47.1775 28.5607 47.5823 28.5607 48.0586C28.5607 48.392 28.7031 48.7611 28.9876 49.1421C31.9752 53.8686 35.2712 58.1186 38.8752 61.8926C43.1432 66.3811 47.3876 69.6668 51.6082 71.7741V72.0598H49.6164C47.103 72.0598 44.637 71.4645 42.2184 70.274C40.2742 69.3218 38.1164 67.8218 35.7452 65.7738C34.6543 64.8214 32.6862 62.9403 29.841 60.1307C26.8534 56.6066 24.0552 52.94 21.447 49.1301C20.7358 48.7491 20.0245 48.5587 19.313 48.5587H18.4594C17.6533 48.6539 17.2501 49.0826 17.2501 49.8444V68.8453C17.2501 69.0358 17.345 69.2741 17.5347 69.5596C17.7244 69.8453 17.8192 70.2024 17.8192 70.6312C17.8192 70.6789 17.7244 70.7503 17.5347 70.8455C17.1553 70.9885 16.7286 71.0599 16.2543 71.0599C15.4007 71.0599 14.974 70.8933 14.974 70.56V22.2715C14.974 21.9857 15.1637 21.7 15.5431 21.4142C15.9225 21.1285 16.3019 20.9855 16.681 20.9855C21.2335 20.9855 24.577 21.2951 26.711 21.9141C30.9317 23.1642 34.109 25.6881 36.2429 29.5099C37.0017 30.8909 37.3811 32.6172 37.3811 34.6649C37.3811 36.915 36.9663 38.796 36.1362 40.3319C35.3063 41.8559 34.2987 43.1416 33.1132 44.1893ZM27.9205 51.8206C27.399 51.0229 26.8772 50.2253 26.3556 49.4156C26.2132 49.4156 25.9525 49.249 25.5731 48.9155C25.3358 48.6298 25.004 48.7011 24.577 49.1299V49.8444C26.711 52.8564 28.4658 55.166 29.841 56.7732C31.975 59.2615 34.109 61.345 36.2429 62.9878C33.445 59.2615 30.6709 55.5469 27.9205 51.8206ZM30.9792 38.0579C31.2165 37.2007 31.3351 36.1769 31.3351 34.9862C31.3351 33.6527 31.1335 32.367 30.7306 31.1288C30.3274 29.8906 29.7229 28.7479 28.9166 27.7002C27.5887 25.9381 26.2491 24.7595 24.8975 24.1642C23.5461 23.5691 21.5424 23.2714 18.8866 23.2714C17.7959 23.2714 17.2506 23.7474 17.2506 24.6999V45.4866C17.2506 45.8201 17.4403 46.1295 17.8197 46.4155C19.1949 46.4155 20.2858 46.3797 21.0919 46.3083C21.8982 46.2367 22.7278 46.0345 23.5815 45.701C25.2415 45.32 26.7588 44.3678 28.1342 42.8439C29.5094 41.3199 30.4577 39.7246 30.9792 38.0579ZM32.1885 42.3438C32.8997 41.4866 33.3977 40.8915 33.6823 40.558C34.6783 38.9865 35.1761 37.0816 35.1761 34.8435C35.1761 32.6053 34.6783 30.6526 33.6823 28.9859C32.971 27.7955 32.3309 26.9146 31.7615 26.3432C31.4297 25.9622 30.4574 25.2477 28.845 24.2003C28.3707 24.0573 28.0862 23.9859 27.9913 23.9859C27.9913 24.1289 28.0151 24.2716 28.0627 24.4144C29.8645 25.8906 31.2516 27.5336 32.2241 29.343C33.1961 31.1527 33.6823 33.1526 33.6823 35.3433C33.4926 37.01 32.971 38.653 32.1174 40.272C31.5007 41.4149 30.505 42.8911 29.1298 44.7008C30.078 44.3676 31.0978 43.582 32.1885 42.3438ZM38.235 42.8439C39.6102 41.3199 40.5587 39.7246 41.0802 38.0579C41.3175 37.2007 41.4359 36.1769 41.4359 34.9862C41.4359 33.6527 41.2343 32.367 40.8314 31.1288C40.4282 29.8906 39.8237 28.7479 39.0176 27.7002C37.6897 25.9381 36.3499 24.7595 34.9985 24.1642C34.2074 23.8157 33.1923 23.5693 31.9543 23.4248C34.0096 24.8464 35.6991 26.7323 37.0028 29.0858C37.9394 30.7766 38.2505 32.7508 38.2505 34.6646C38.2505 36.7618 37.9087 38.8893 36.8998 40.749C36.0634 42.2904 35.0003 43.6775 33.6894 44.8423C33.138 45.3325 32.559 45.7858 31.9558 46.2026C32.5203 46.0972 33.0957 45.9301 33.6828 45.7008C35.3428 45.3198 36.8601 44.3676 38.2355 42.8436L38.235 42.8439ZM69.0003 29.3288V81.1672H0V11.8779H51.6219L69 29.3286L69.0003 29.3288ZM61.7093 71.7739C57.4886 69.6668 53.2442 66.3809 48.9762 61.8924C45.3722 58.1183 42.0763 53.8681 39.0887 49.1418C38.8041 48.7608 38.662 48.3918 38.662 48.0583C38.662 47.5823 38.8514 47.1772 39.2311 46.844C40.7011 46.1295 42.029 45.2487 43.2145 44.189C44.4 43.1416 45.4079 41.8556 46.2378 40.3317C47.0676 38.7958 47.4824 36.9147 47.4824 34.6646C47.4824 32.617 47.103 30.8909 46.3442 29.5097C44.2103 25.6881 41.0329 23.1642 36.8123 21.9138C34.6783 21.2949 31.3351 20.9852 26.7823 20.9852C26.7388 20.9852 26.6948 20.987 26.6513 20.9908C23.6551 20.1831 19.721 20.1128 16.681 20.1128C16.0662 20.1128 15.5079 20.3498 15.0216 20.716C14.8422 20.8511 14.6743 21.0035 14.5319 21.1737C14.153 20.3945 13.2068 20.1128 12.2704 20.1128C11.3341 20.1128 10.1923 20.4039 10.1923 21.5567C10.1923 22.0545 10.4281 22.701 10.6079 23.1612C10.6345 23.2287 10.683 23.3481 10.6904 23.4208V69.0976C10.6646 69.1788 10.5808 69.3142 10.5404 69.3782C10.3155 69.7348 10.1923 70.1361 10.1923 70.559C10.1923 71.7624 11.4722 72.003 12.4128 72.003C12.7303 72.003 13.1205 71.91 13.4299 71.8371C13.8007 71.7495 14.1315 71.5775 14.3634 71.3228C14.778 71.8183 15.6099 71.9316 16.2541 71.9316C16.8085 71.9316 17.3693 71.8691 17.8819 71.6446C18.3059 71.4589 18.688 71.1435 18.688 70.6304C18.688 70.0777 18.5656 69.539 18.2575 69.0747C18.2194 69.0173 18.1404 68.8926 18.1189 68.8184V49.8436C18.1189 49.5236 18.1908 49.4476 18.5102 49.4288C18.7718 49.4133 19.0495 49.4304 19.313 49.4304C19.8563 49.4304 20.372 49.5733 20.8564 49.8065C21.124 50.1969 21.3916 50.587 21.6605 50.9766V69.1303C21.6605 69.3208 21.5656 69.5591 21.3759 69.8445C21.2335 70.0828 21.1625 70.3208 21.1625 70.559C21.1625 70.94 21.6129 71.1302 22.5139 71.1302C22.6563 71.1302 22.9289 71.0827 23.3318 70.9875C23.735 70.8923 23.9366 70.7018 23.9366 70.416V54.2051C24.3114 54.7217 24.6903 55.235 25.0748 55.7443V70.5588C25.0748 70.892 25.5017 71.0586 26.3551 71.0586C26.8294 71.0586 27.2561 70.9872 27.6355 70.8442C27.8252 70.749 27.92 70.6776 27.92 70.6299C27.92 70.2011 27.8254 69.844 27.6355 69.5583C27.446 69.2726 27.3509 69.0346 27.3509 68.8441V58.6159C27.9511 59.3332 28.5678 60.0367 29.2044 60.7238C31.116 62.7864 33.0616 64.5958 35.1761 66.4322C37.1851 68.1768 39.4425 69.8809 41.836 71.0563C44.2836 72.2582 46.887 72.931 49.6156 72.931H52.4763V71.2321L51.9942 70.9913C47.2955 68.6455 43.111 65.0754 39.502 61.2879C35.8299 57.4346 32.7143 53.0243 29.7017 48.6445C29.686 48.6219 29.6678 48.5945 29.648 48.564C30.2814 48.6011 30.9145 48.7895 31.5475 49.1286C34.1558 52.9385 36.9539 56.6053 39.9416 60.1292C42.7868 62.9388 44.7548 64.8199 45.8457 65.7723C48.2167 67.8202 50.3747 69.3203 52.319 70.2725C54.7375 71.4632 57.2036 72.0583 59.7169 72.0583H61.7088V71.7726L61.7093 71.7739ZM36.4567 49.4156C36.3143 49.4156 36.0535 49.249 35.6741 48.9155C35.4369 48.6298 35.105 48.7011 34.6781 49.1299V49.8444C36.812 52.8564 38.5666 55.166 39.9421 56.7732C42.076 59.2615 44.21 61.345 46.344 62.9878C43.5461 59.2615 40.7717 55.5469 38.0213 51.8206C37.4995 51.0229 36.9782 50.2253 36.4567 49.4156Z" fill="#EAEFF3"/>
<path id="Vector_3" d="M48.0454 9.44083H44.4113V5.55504H48.0454C48.9527 5.5525 49.6468 5.70514 50.1225 6.01806C50.5983 6.33072 50.8386 6.82092 50.8411 7.49044C50.8386 8.16529 50.5983 8.6626 50.1225 8.97526C49.6468 9.29047 48.953 9.44591 48.0454 9.44083ZM47.6924 0.900922C48.2443 0.900922 48.7124 0.969753 49.0999 1.11021C49.4874 1.25041 49.7841 1.45995 49.9877 1.73807C50.1913 2.01645 50.2965 2.36365 50.2965 2.77715C50.2965 3.19064 50.1911 3.5381 49.9877 3.81647C49.7841 4.09231 49.4874 4.30159 49.0999 4.4418C48.7124 4.582 48.2443 4.65362 47.6924 4.65362H44.4113V0.901176H47.6924V0.900922ZM49.8112 5.00819C50.1276 4.88018 50.402 4.70772 50.6375 4.49107C50.873 4.27442 51.0568 4.01332 51.1868 3.70802C51.3169 3.40272 51.3829 3.05298 51.3854 2.65904C51.3829 2.09518 51.2407 1.61743 50.9562 1.22095C50.6742 0.824471 50.2621 0.524001 49.7252 0.314713C49.1857 0.105426 48.5334 0.00205162 47.766 -0.000488281H43.3227V10.3417H48.0604C48.9186 10.3392 49.6346 10.231 50.2085 10.0166C50.7824 9.79997 51.2114 9.48731 51.4982 9.0761C51.785 8.66489 51.93 8.16758 51.93 7.57908C51.9274 7.11123 51.8442 6.70231 51.675 6.35536C51.5058 6.00561 51.2655 5.72013 50.9491 5.49357C50.6327 5.26955 50.255 5.107 49.8114 5.00845L49.8112 5.00819ZM33.8917 6.6924L36.3636 1.13713L38.8352 6.6924H33.8917ZM40.4684 10.3417H41.6159L36.9079 1.96988e-05H35.834L31.1256 10.3422H32.2585L33.4943 7.57934H39.2323L40.4681 10.3422L40.4684 10.3417ZM28.3447 1.96988e-05V4.60968H21.9005V1.96988e-05H20.8119V10.3422H21.9005V5.57002H28.3447V10.3422H29.4189V1.96988e-05H28.3447ZM12.0577 9.39663V5.55529H17.3837V4.62442H12.0577V0.945624H18.0312V1.96988e-05H10.9691V10.3422H18.252V9.39663H12.0577ZM4.15691 6.13134H1.4202V0.945624H4.15691C4.84362 0.945624 5.42233 1.049 5.88822 1.25092C6.35665 1.45538 6.70974 1.74823 6.9475 2.13506C7.1855 2.52163 7.30539 2.99202 7.30539 3.54597C7.30539 4.09027 7.18525 4.55304 6.9475 4.93987C6.70949 5.3239 6.3564 5.61701 5.88822 5.82147C5.42233 6.02568 4.84362 6.12931 4.15691 6.13159V6.13134ZM8.55614 10.342L6.04023 6.79603C6.54306 6.63348 6.96723 6.39955 7.31779 6.09654C7.66835 5.79607 7.93342 5.42931 8.1173 5.00337C8.30118 4.57489 8.39451 4.08723 8.39451 3.54547C8.39198 2.80432 8.2205 2.16909 7.88688 1.64207C7.55099 1.1125 7.06789 0.708652 6.44265 0.425707C5.81462 0.145302 5.06165 0.0025596 4.18625 1.96988e-05H0.331589V10.3422H1.4202V7.06221H4.18625C4.33346 7.06221 4.47308 7.05739 4.61042 7.05002C4.74523 7.04265 4.87777 7.03275 5.01005 7.01802L7.36407 10.3422H8.55588L8.55614 10.342Z" fill="#EAEFF3"/>
</g>
<defs>
<clipPath id="clip0_8_774">
<rect width="69" height="92" fill="white"/>
</clipPath>
</defs>
</svg>
