<svg width="170" height="174" viewBox="0 0 170 174" fill="none" xmlns="http://www.w3.org/2000/svg">
<g id="logo-part" clip-path="url(#clip0_7_274)">
<path id="Vector" fill-rule="evenodd" clip-rule="evenodd" d="M85.964 140.892C76.7311 128.647 67.5758 116.44 58.4998 104.195C56.7788 101.574 55.0569 98.9529 53.3359 96.292C52.8659 96.292 52.0054 95.7445 50.7534 94.6486C49.9705 93.7096 48.8755 93.9441 47.4666 95.353V97.7009C54.5085 107.599 60.2993 115.188 64.8373 120.47C71.8793 128.647 78.9212 135.494 85.9632 140.892M68.5924 58.9697C69.3753 56.1528 69.7668 52.7883 69.7668 48.8755C69.7668 44.4936 69.1016 40.2686 67.772 36.1996C66.4415 32.1307 64.4467 28.3756 61.7859 24.9327C57.4039 19.1419 52.9836 15.2691 48.5233 13.3127C44.0637 11.3571 37.4516 10.3789 28.6878 10.3789C25.0888 10.3789 23.2893 11.943 23.2893 15.073V83.3816C23.2893 84.4775 23.9152 85.4941 25.1672 86.4339C29.7052 86.4339 33.3051 86.3163 35.9651 86.0817C38.626 85.8463 41.3636 85.182 44.1806 84.0861C49.6584 82.8341 54.6655 79.705 59.2043 74.6971C63.7423 69.6892 66.8714 64.4467 68.5924 58.9697ZM77.5132 67.1852C80.8 62.0212 82.4426 55.7613 82.4426 48.4064C82.4426 41.0515 80.8 34.6347 77.5132 29.1577C75.1661 25.2457 73.0536 22.3511 71.1748 20.4731C70.0798 19.2212 66.8714 16.8733 61.5505 13.4312C59.9855 12.9613 59.0465 12.7268 58.7335 12.7268C58.7335 13.1967 58.812 13.6657 58.9689 14.1348C64.915 18.9858 69.4922 24.3852 72.7014 30.3312C75.909 36.2781 77.5132 42.8501 77.5132 50.049C76.8872 55.526 75.1661 60.9253 72.3492 66.2454C70.3143 70.0013 67.0283 74.8523 62.4903 80.7992C65.6194 79.7041 68.9847 77.1217 72.5837 73.0528C74.9308 70.2359 76.5742 68.2811 77.5132 67.1852ZM12.0223 165.306C12.0223 166.245 11.3571 166.871 10.0267 167.184C8.69706 167.496 7.79731 167.653 7.3274 167.653C4.35437 167.653 2.86786 167.027 2.86786 165.776C2.86786 164.993 3.1024 164.211 3.57231 163.428C4.19829 162.489 4.51129 161.707 4.51129 161.081V10.848C4.51129 10.3789 4.35437 9.75289 4.04138 8.96999C3.25931 6.93511 2.86786 5.52706 2.86786 4.74499C2.86786 3.49301 4.19746 2.86703 6.85833 2.86703C10.3013 2.86703 12.0231 3.96209 12.0231 6.15388L12.0223 165.306ZM136.667 170.705H130.095C121.801 170.705 113.663 168.749 105.682 164.837C99.2658 161.708 92.1454 156.778 84.3206 150.049C80.7207 146.919 74.2263 140.737 64.8373 131.504C54.9784 119.923 45.7447 107.874 37.1378 95.3547C34.7907 94.1027 32.4437 93.4767 30.0958 93.4767H27.2789C24.6189 93.7897 23.2884 95.1986 23.2884 97.7017V160.142C23.2884 160.768 23.6014 161.551 24.2274 162.489C24.8534 163.428 25.1664 164.601 25.1664 166.01C25.1664 166.167 24.8542 166.402 24.2274 166.715C22.9754 167.185 21.5674 167.419 20.0024 167.419C17.1855 167.419 15.7774 166.872 15.7774 165.777V7.09286C15.7774 6.15388 16.4034 5.2149 17.6554 4.27592C18.9073 3.33693 20.1593 2.86703 21.4105 2.86703C36.4333 2.86703 47.4666 3.88446 54.5085 5.91851C68.4364 10.0267 78.9212 18.3206 85.9632 30.8796C88.4671 35.4176 89.7191 41.0907 89.7191 47.8196C89.7191 55.2138 88.3503 61.3952 85.611 66.4424C82.8725 71.4503 79.5464 75.6753 75.6344 79.1182C71.7224 82.6004 67.3405 85.495 62.4895 87.8428C61.2375 88.9379 60.6115 90.2683 60.6115 91.8333C60.6115 92.9292 61.0814 94.1419 62.0204 95.3939C71.8793 110.926 82.7556 124.892 94.6486 137.294C108.732 152.044 122.739 162.841 136.667 169.766V170.705H136.667ZM119.297 140.893C110.065 128.648 100.909 116.441 91.8333 104.196C90.1114 101.575 88.3904 98.9537 86.6693 96.2928C86.1994 96.2928 85.3389 95.7453 84.0869 94.6494C83.304 93.7104 82.2089 93.945 80.8 95.3539V97.7017C87.842 107.6 93.632 115.189 98.1708 120.471C105.213 128.648 112.255 135.495 119.297 140.893H119.297ZM110.847 67.1861C114.134 62.0221 115.777 55.7622 115.777 48.4072C115.777 41.0523 114.134 34.6355 110.847 29.1585C108.5 25.2465 106.388 22.3519 104.509 20.474C103.414 19.222 100.206 16.8741 94.8848 13.432C93.3198 12.9621 92.3808 12.7276 92.0678 12.7276C92.0678 13.1975 92.1463 13.6666 92.3032 14.1356C98.2492 18.9866 102.826 24.386 106.035 30.332C109.242 36.2789 110.847 42.851 110.847 50.0498C110.221 55.5268 108.5 60.9262 105.683 66.2462C103.648 70.0022 100.362 74.8532 95.8237 80.8C98.9529 79.705 102.317 77.1226 105.917 73.0536C108.264 70.2367 109.908 68.2811 110.847 67.1852L110.847 67.1861ZM56.6235 73.2656C56.7771 73.1037 56.929 72.9393 57.0809 72.7715C60.9095 68.5474 64.2147 63.6672 65.8456 58.1568C66.7095 55.2372 66.9014 51.9061 66.9014 48.8763C66.9014 44.8591 66.2963 40.9096 65.0485 37.0919C63.8107 33.3059 61.9286 29.8379 59.5098 26.6746C58.6267 25.5194 57.6618 24.3326 56.6235 23.1757V73.2656ZM26.2665 83.5661C29.4047 83.5569 32.6031 83.501 35.7139 83.2264C36.4175 83.1646 37.1294 83.0494 37.8439 82.9V13.6849C34.6564 13.3335 31.4388 13.2467 28.6886 13.2467C27.0861 13.2467 26.1571 13.3703 26.1571 15.0738V83.3783C26.1696 83.4309 26.2105 83.496 26.2665 83.5661ZM71.8109 10.883C78.5932 15.5546 84.1687 21.7518 88.4705 29.4857C91.5612 35.042 92.5878 41.5297 92.5878 47.8188C92.5878 54.7105 91.4602 61.7016 88.1308 67.8129C85.3706 72.8784 81.8625 77.4364 77.5366 81.2641C75.717 82.875 73.8065 84.3648 71.8159 85.7345C73.6788 85.3881 75.5776 84.8389 77.514 84.0852C82.9918 82.8332 87.9989 79.7041 92.5377 74.6962C97.0757 69.6883 100.206 64.4459 101.927 58.9689C102.71 56.152 103.1 52.7875 103.1 48.8746C103.1 44.4927 102.435 40.2677 101.105 36.1988C99.775 32.1299 97.7802 28.3748 95.1201 24.9319C90.7382 19.141 86.3171 15.2683 81.8575 13.3118C79.2467 12.1667 75.8973 11.3571 71.8117 10.8822L71.8109 10.883ZM49.1109 78.9889V16.8174C48.5416 16.4919 47.9615 16.1972 47.3723 15.9393C46.7329 15.6589 46.0577 15.4068 45.3549 15.1806V80.6632C46.6628 80.1766 47.9131 79.6215 49.1109 78.9889ZM170.001 170.705H163.428C155.134 170.705 146.996 168.749 139.015 164.837C132.599 161.708 125.479 156.778 117.654 150.049C114.054 146.919 107.56 140.737 98.1708 131.504C88.3119 119.923 79.079 107.874 70.4712 95.3547C68.3821 94.2404 66.293 93.6219 64.203 93.4993C64.2681 93.5994 64.3282 93.6896 64.38 93.7638C74.3215 108.156 84.6027 122.649 96.7202 135.312C108.63 147.757 122.437 159.489 137.944 167.199L139.534 167.99V173.573H130.095C121.09 173.573 112.499 171.362 104.422 167.413C96.524 163.55 89.0748 157.95 82.4451 152.217C75.4675 146.182 69.0473 140.236 62.739 133.458C60.6374 131.2 58.6033 128.888 56.6227 126.531V160.143C56.6227 160.769 56.9357 161.552 57.5617 162.49C58.1877 163.429 58.5007 164.602 58.5007 166.011C58.5007 166.168 58.1885 166.403 57.5617 166.716C56.3097 167.186 54.9017 167.42 53.3367 167.42C50.5197 167.42 49.1117 166.873 49.1117 165.778V117.095C47.843 115.421 46.5927 113.735 45.3558 112.037V165.308C45.3558 166.247 44.6905 166.873 43.3601 167.186C42.0305 167.499 41.1308 167.655 40.6608 167.655C37.6878 167.655 36.2013 167.029 36.2013 165.778C36.2013 164.995 36.4358 164.213 36.9058 163.43C37.5317 162.492 37.8447 161.709 37.8447 161.083V101.428C36.9575 100.147 36.0744 98.8652 35.1914 97.5824C33.593 96.8162 31.8912 96.3462 30.0983 96.3462C29.2295 96.3462 28.313 96.2903 27.4492 96.3412C26.395 96.403 26.158 96.6526 26.158 97.7042V160.058C26.2289 160.302 26.4893 160.712 26.6153 160.901C27.6319 162.426 28.0359 164.197 28.0359 166.013C28.0359 167.699 26.7748 168.735 25.3759 169.346C23.684 170.083 21.8336 170.289 20.0041 170.289C17.8782 170.289 15.1322 169.917 13.7651 168.288C13.0005 169.125 11.908 169.69 10.6844 169.978C9.66359 170.219 8.37572 170.523 7.32823 170.523C4.225 170.523 0.000834651 169.733 0.000834651 165.778C0.000834651 164.389 0.40731 163.07 1.14931 161.898C1.28286 161.688 1.55913 161.243 1.64343 160.976V10.8713C1.62006 10.6326 1.45897 10.2403 1.37133 10.0183C0.777894 8.50593 0 6.38174 0 4.74582C0 0.95651 3.78264 0 6.85749 0C9.93234 0 13.0698 0.925628 14.3201 3.48634C14.7892 2.92629 15.3442 2.42633 15.936 1.9823C17.5402 0.779564 19.3831 0 21.4121 0C31.443 0 44.4251 0.231198 54.3132 2.88539C54.4568 2.87287 54.602 2.86703 54.7456 2.86703C69.7685 2.86703 80.8017 3.88446 87.8437 5.91851C101.771 10.0267 112.256 18.3206 119.298 30.8796C121.802 35.4176 123.054 41.0907 123.054 47.8196C123.054 55.2138 121.685 61.3952 118.947 66.4424C116.208 71.4503 112.882 75.6753 108.97 79.1182C105.058 82.6004 100.676 85.495 95.8254 87.8428C94.5726 88.9379 93.9475 90.2683 93.9475 91.8333C93.9475 92.9292 94.4174 94.1419 95.3555 95.3939C105.214 110.926 116.091 124.892 127.984 137.294C142.068 152.044 156.074 162.841 170.002 169.766L170.001 170.705Z" fill="#EAEFF3"/>
</g>
<defs>
<clipPath id="clip0_7_274">
<rect width="170" height="173.572" fill="white"/>
</clipPath>
</defs>
</svg>
