<svg width="70" height="55" viewBox="0 0 70 55" fill="none" xmlns="http://www.w3.org/2000/svg">
<g id="icon" clip-path="url(#clip0_43_333)">
<path id="Vector" d="M10.1751 16.1381V5.4939C10.1751 2.46452 12.6713 0 15.7396 0H54.3814C57.4497 0 59.9459 2.46452 59.9459 5.4939V16.1381C59.9459 16.712 59.4748 17.1772 58.8935 17.1772C58.3123 17.1772 57.8412 16.712 57.8412 16.1381V5.4939C57.8412 3.61054 56.289 2.07801 54.3814 2.07801H15.7399C13.8324 2.07801 12.2802 3.61054 12.2802 5.4939V16.1381C12.2802 16.712 11.8091 17.1772 11.2278 17.1772C10.6466 17.1772 10.1751 16.712 10.1751 16.1381ZM69.9996 26.9916V43.466C69.9996 46.3939 67.8532 48.8314 65.0333 49.3374V53.961C65.0333 54.5349 64.5622 55 63.9809 55H55.1384C54.5572 55 54.0861 54.5349 54.0861 53.961C54.0861 53.3871 54.5572 52.922 55.1384 52.922H62.9286V49.4386H15.9746V53.961C15.9746 54.5349 15.5035 55 14.9223 55H6.07976C5.49851 55 5.02741 54.5349 5.02741 53.961C5.02741 53.3871 5.49851 52.922 6.07976 52.922H13.8699V49.4386H6.04924C2.71365 49.4386 0 46.7593 0 43.466V26.9916C0 23.9127 2.53686 21.408 5.65566 21.408H10.6827C13.8012 21.408 16.3384 23.9127 16.3384 26.9916V29.3013H53.6627V26.9916C53.6627 23.9127 56.1995 21.408 59.318 21.408H64.345C67.4635 21.408 70.0004 23.9127 70.0004 26.9916H69.9996ZM16.3377 31.3793V36.5369H53.662V31.3793H16.3377ZM67.895 26.9916C67.895 25.0583 66.3021 23.486 64.3443 23.486H59.3173C57.3596 23.486 55.7667 25.0587 55.7667 26.9916V37.5759C55.7667 38.1498 55.2956 38.6149 54.7143 38.6149H15.2857C14.7044 38.6149 14.2333 38.1498 14.2333 37.5759V26.9916C14.2333 25.0583 12.6404 23.486 10.6824 23.486H5.65531C3.69724 23.486 2.10434 25.0587 2.10434 26.9916V43.466C2.10434 45.6133 3.87369 47.3606 6.04889 47.3606H63.9508C66.1256 47.3606 67.895 45.6136 67.895 43.466V26.9916Z" fill="url(#paint0_linear_43_333)"/>
</g>
<defs>
<linearGradient id="paint0_linear_43_333" x1="23.0891" y1="55" x2="64.5995" y2="30.1055" gradientUnits="userSpaceOnUse">
<stop stop-color="#E3077F"/>
<stop offset="1" stop-color="#0289CC"/>
</linearGradient>
<clipPath id="clip0_43_333">
<rect width="70" height="55" fill="white"/>
</clipPath>
</defs>
</svg>
