<svg width="75" height="100" fill="none" xmlns="http://www.w3.org/2000/svg"><g clip-path="url(#a)"><path d="M74.997 90.447H74l-3.235 5.318-3.234-5.318h-1.064l3.773 6.197v3.275h.983v-3.275l3.773-6.197zM61.75 96.062h-2.506v-4.75h2.506c.63 0 1.16.095 1.586.28.429.188.752.456.97.81.218.354.328.785.328 1.292 0 .499-.11.923-.328 1.277-.218.352-.541.62-.97.807-.427.187-.957.282-1.586.284zm4.03 3.857-2.305-3.248a3.33 3.33 0 0 0 1.17-.64c.321-.276.564-.612.732-1.002.169-.392.254-.839.254-1.335-.002-.679-.16-1.26-.465-1.743-.307-.485-.75-.855-1.323-1.114-.575-.258-1.264-.388-2.066-.39h-3.53v9.472h.996v-3.004h2.534a7.027 7.027 0 0 0 .754-.04l2.157 3.044h1.091zm-15.551-.866v-3.519h4.878v-.852h-4.878v-3.37H55.7v-.866h-6.468v9.473h6.67v-.866H50.23zm-3.571-8.606-3.638 8.227-3.612-8.227H38.33l4.178 9.472h.983l4.178-9.472h-1.011zm-14.014 8.66a4.238 4.238 0 0 1-1.581-.295 3.735 3.735 0 0 1-2.093-2.062 4.1 4.1 0 0 1-.302-1.567 4.1 4.1 0 0 1 .301-1.568 3.738 3.738 0 0 1 2.094-2.061 4.232 4.232 0 0 1 1.58-.295 4.2 4.2 0 0 1 1.573.295 3.72 3.72 0 0 1 2.077 2.061c.198.478.297 1 .3 1.568-.003.568-.102 1.09-.3 1.567a3.72 3.72 0 0 1-2.077 2.062 4.2 4.2 0 0 1-1.572.295zm0 .893a5.348 5.348 0 0 0 1.967-.363c.6-.237 1.121-.573 1.568-1.006.444-.43.79-.94 1.035-1.524.247-.587.37-1.227.375-1.924a4.987 4.987 0 0 0-.375-1.924 4.543 4.543 0 0 0-1.035-1.524 4.716 4.716 0 0 0-1.568-1.006c-.6-.239-1.255-.36-1.967-.363a5.325 5.325 0 0 0-1.981.366 4.715 4.715 0 0 0-1.57 1.008c-.445.433-.79.943-1.035 1.526a4.99 4.99 0 0 0-.373 1.918c.004.694.128 1.332.373 1.917.244.584.59 1.094 1.035 1.527.445.433.968.769 1.57 1.008.604.241 1.262.36 1.98.365V100zm-9.716 0c.465 0 .907-.052 1.33-.158.422-.103.812-.259 1.172-.464.361-.208.68-.465.961-.772l-.633-.636a3.59 3.59 0 0 1-1.278.868 4.12 4.12 0 0 1-1.512.269 4.214 4.214 0 0 1-1.583-.298 3.754 3.754 0 0 1-2.102-2.066 4.036 4.036 0 0 1-.303-1.56 4.036 4.036 0 0 1 .303-1.56 3.748 3.748 0 0 1 2.102-2.067 4.214 4.214 0 0 1 1.583-.298 4.12 4.12 0 0 1 1.512.267c.467.18.894.466 1.278.856l.633-.636c-.28-.306-.6-.561-.961-.766a4.471 4.471 0 0 0-1.168-.46 5.599 5.599 0 0 0-1.32-.154 5.325 5.325 0 0 0-1.972.363 4.672 4.672 0 0 0-1.568 1.006 4.58 4.58 0 0 0-1.033 1.525 5.023 5.023 0 0 0-.373 1.923c.004.697.128 1.337.373 1.924a4.538 4.538 0 0 0 1.033 1.524c.442.434.964.77 1.561 1.006.6.24 1.253.359 1.965.363V100zm-12.114-.947v-3.518h4.878v-.853h-4.878v-3.37h5.47v-.865H9.817v9.472h6.67v-.866h-5.672zm-7.237-2.99H1.071v-4.75h2.506c.629 0 1.159.095 1.586.28.428.187.752.455.97.81.218.353.328.784.328 1.292 0 .498-.11.922-.328 1.276-.218.352-.542.62-.97.807-.427.188-.957.282-1.586.285zm4.03 3.856-2.305-3.248a3.33 3.33 0 0 0 1.17-.64 2.72 2.72 0 0 0 .732-1.002c.169-.392.254-.838.254-1.335-.002-.678-.16-1.26-.465-1.743-.307-.485-.75-.855-1.323-1.114-.575-.257-1.264-.388-2.066-.39H.074v9.472h.997v-3.004h2.533a7.03 7.03 0 0 0 .754-.04l2.157 3.044h1.091z" fill="#E4007E"/><path fill-rule="evenodd" clip-rule="evenodd" d="M0 12.911h56.11L75 31.88v56.346H0V12.911z" fill="url(#b)"/><path fill-rule="evenodd" clip-rule="evenodd" d="M39.394 68.465c-3.041-4.05-6.057-8.088-9.046-12.138-.567-.867-1.134-1.734-1.701-2.614-.155 0-.438-.182-.85-.544-.259-.31-.62-.233-1.083.233v.776c2.32 3.275 4.227 5.785 5.721 7.532 2.32 2.705 4.64 4.97 6.959 6.755m-5.722-27.098c.258-.931.387-2.044.387-3.338 0-1.45-.22-2.847-.657-4.193a12.33 12.33 0 0 0-1.972-3.727c-1.443-1.915-2.9-3.196-4.368-3.843-1.47-.647-3.647-.97-6.534-.97-1.185 0-1.778.517-1.778 1.552v22.594c0 .363.206.699.618 1.01 1.495 0 2.681-.04 3.557-.117a9.824 9.824 0 0 0 2.706-.66c1.805-.414 3.454-1.449 4.949-3.105 1.495-1.657 2.525-3.39 3.092-5.203zm2.939 2.718c1.082-1.708 1.623-3.779 1.623-6.212 0-2.432-.54-4.555-1.623-6.366-.773-1.294-1.47-2.252-2.088-2.873-.36-.414-1.418-1.19-3.17-2.33-.516-.155-.825-.232-.928-.232 0 .155.026.31.077.466 1.959 1.604 3.467 3.39 4.524 5.357 1.056 1.967 1.585 4.14 1.585 6.522-.207 1.811-.773 3.597-1.701 5.357-.67 1.242-1.753 2.847-3.248 4.814 1.03-.362 2.14-1.216 3.325-2.562.773-.932 1.314-1.579 1.624-1.941zM15.038 76.54c0 .31-.219.518-.657.621-.438.104-.734.156-.89.156-.978 0-1.468-.208-1.468-.621 0-.26.077-.518.232-.777.206-.31.31-.57.31-.776V25.45c0-.155-.052-.363-.155-.622-.258-.673-.387-1.138-.387-1.397 0-.414.438-.621 1.314-.621 1.135 0 1.702.362 1.702 1.087V76.54zm41.057 1.786H53.93c-2.732 0-5.412-.647-8.041-1.941-2.114-1.035-4.459-2.666-7.036-4.892-1.186-1.035-3.325-3.08-6.418-6.133a146.18 146.18 0 0 1-9.124-11.957c-.773-.415-1.546-.622-2.32-.622h-.927c-.877.104-1.315.57-1.315 1.398v20.653c0 .207.103.466.31.776.206.311.309.7.309 1.165 0 .052-.103.13-.31.233a3.923 3.923 0 0 1-1.391.233c-.928 0-1.392-.18-1.392-.543V24.208c0-.31.207-.62.619-.931.412-.311.825-.466 1.237-.466 4.948 0 8.582.336 10.902 1.009 4.587 1.359 8.041 4.102 10.36 8.256.825 1.501 1.238 3.378 1.238 5.603 0 2.446-.451 4.49-1.353 6.16-.902 1.657-1.998 3.054-3.286 4.193a18.746 18.746 0 0 1-4.33 2.886c-.413.362-.619.802-.619 1.32 0 .362.155.763.464 1.178 3.248 5.137 6.83 9.757 10.748 13.859 4.639 4.879 9.252 8.45 13.84 10.74v.311zm-5.721-9.86c-3.042-4.051-6.057-8.089-9.047-12.139a450.15 450.15 0 0 1-1.7-2.614c-.156 0-.439-.181-.851-.544-.258-.31-.619-.233-1.083.233v.777c2.32 3.274 4.227 5.784 5.722 7.531 2.32 2.705 4.639 4.97 6.958 6.755zm-2.784-24.38c1.083-1.709 1.624-3.78 1.624-6.212 0-2.433-.541-4.556-1.624-6.367-.773-1.294-1.469-2.252-2.088-2.873-.36-.414-1.417-1.19-3.17-2.329-.515-.155-.824-.233-.928-.233 0 .155.026.31.078.466 1.959 1.604 3.466 3.39 4.523 5.357 1.057 1.967 1.585 4.14 1.585 6.522-.206 1.812-.773 3.598-1.7 5.357-.671 1.243-1.754 2.847-3.248 4.814 1.03-.362 2.139-1.216 3.324-2.562a215.09 215.09 0 0 1 1.624-1.941zm-17.86 2.01.15-.163c1.261-1.398 2.35-3.012 2.887-4.834.285-.966.348-2.068.348-3.07 0-1.329-.2-2.635-.61-3.898a11.592 11.592 0 0 0-1.825-3.446c-.29-.382-.608-.774-.95-1.157v16.568zm-10 3.407c1.034-.003 2.087-.021 3.112-.112.232-.02.466-.059.702-.108V26.389a27.817 27.817 0 0 0-3.016-.145c-.528 0-.834.04-.834.604v22.593a.181.181 0 0 0 .036.063zm15.002-24.04c2.234 1.544 4.07 3.594 5.488 6.152 1.018 1.838 1.356 3.984 1.356 6.064 0 2.28-.371 4.592-1.468 6.614-.91 1.675-2.065 3.183-3.49 4.45-.599.532-1.228 1.025-1.884 1.478.614-.115 1.24-.296 1.877-.546 1.804-.414 3.454-1.449 4.949-3.105 1.494-1.657 2.525-3.39 3.092-5.203.258-.931.387-2.044.387-3.338 0-1.45-.22-2.847-.657-4.193a12.335 12.335 0 0 0-1.972-3.727c-1.443-1.915-2.9-3.196-4.368-3.843-.86-.38-1.964-.647-3.31-.804zm-7.477 22.526V27.425a6.013 6.013 0 0 0-.572-.29 6.971 6.971 0 0 0-.665-.251v21.66c.43-.162.843-.345 1.237-.554zm39.82 30.337H64.91c-2.732 0-5.412-.647-8.041-1.94-2.114-1.036-4.459-2.666-7.036-4.892-1.186-1.035-3.325-3.08-6.418-6.134a146.223 146.223 0 0 1-9.124-11.957c-.688-.369-1.376-.573-2.065-.614l.059.088c3.274 4.76 6.66 9.554 10.652 13.742 3.923 4.117 8.471 7.998 13.579 10.548l.524.261v1.847h-3.11c-2.966 0-5.795-.731-8.456-2.038-2.601-1.277-5.055-3.13-7.239-5.026-2.298-1.996-4.413-3.963-6.49-6.205a60.04 60.04 0 0 1-2.015-2.291v11.118c0 .207.103.466.309.776.206.31.31.699.31 1.165 0 .052-.104.13-.31.233a3.92 3.92 0 0 1-1.392.233c-.928 0-1.391-.181-1.391-.544V60.594c-.418-.554-.83-1.112-1.238-1.673v17.62c0 .31-.219.518-.657.621-.438.104-.734.156-.89.156-.978 0-1.468-.207-1.468-.621 0-.26.077-.518.232-.777.206-.31.31-.57.31-.776V55.41c-.293-.423-.584-.847-.875-1.271-.526-.254-1.087-.41-1.677-.41-.287 0-.588-.018-.873 0-.347.02-.425.102-.425.45v20.625c.023.08.109.216.15.278.335.505.468 1.09.468 1.691 0 .558-.415.9-.876 1.103-.557.244-1.167.312-1.77.312-.7 0-1.604-.123-2.054-.662-.252.277-.612.464-1.015.559-.336.08-.76.18-1.106.18-1.022 0-2.413-.261-2.413-1.57 0-.459.134-.895.378-1.283.044-.07.135-.216.163-.305v-49.65c-.008-.079-.06-.209-.09-.282-.195-.5-.451-1.203-.451-1.744 0-1.253 1.246-1.57 2.258-1.57 1.013 0 2.047.307 2.459 1.154.154-.186.337-.351.532-.498.528-.398 1.135-.655 1.804-.655 3.304 0 7.58.076 10.837.954.047-.004.095-.006.142-.006 4.949 0 8.583.336 10.902 1.01 4.588 1.358 8.042 4.101 10.361 8.255.825 1.502 1.237 3.378 1.237 5.604 0 2.445-.45 4.49-1.353 6.16-.902 1.656-1.997 3.053-3.286 4.192a18.748 18.748 0 0 1-4.33 2.886c-.412.362-.618.802-.618 1.32 0 .362.155.764.464 1.178 3.247 5.137 6.83 9.757 10.747 13.859 4.64 4.879 9.253 8.45 13.84 10.74v.311z" fill="#fff"/><path d="M52.223 10.262h-3.95V6.038h3.95c.986-.003 1.74.163 2.258.503.517.34.778.873.781 1.6-.003.734-.264 1.275-.781 1.615-.517.342-1.271.511-2.258.506zM51.84.979c.6 0 1.108.075 1.53.228.42.152.743.38.965.682.22.303.335.68.335 1.13 0 .45-.114.827-.336 1.13-.22.3-.543.527-.965.679-.42.152-.93.23-1.53.23h-3.566V.98h3.566zm2.303 4.465c.343-.14.642-.327.898-.562.256-.236.456-.52.597-.852.141-.331.213-.712.216-1.14-.003-.613-.158-1.132-.467-1.563-.306-.43-.754-.757-1.338-.985-.586-.227-1.295-.34-2.13-.343h-4.83v11.242h5.15c.933-.003 1.712-.12 2.336-.353.623-.236 1.09-.576 1.401-1.023.312-.447.47-.987.47-1.627-.003-.508-.094-.953-.277-1.33a2.435 2.435 0 0 0-.79-.937 3.38 3.38 0 0 0-1.236-.527zm-17.304 1.83 2.687-6.038 2.686 6.038H36.84zm7.148 3.967h1.248L40.117 0H38.95l-5.118 11.242h1.232l1.343-3.004h6.237l1.343 3.004v-.001zM30.81 0v5.01h-7.004V0h-1.183v11.242h1.183V6.054h7.004v5.188h1.168V0h-1.168zM13.106 10.214V6.038h5.79V5.027h-5.79v-4H19.6V0h-7.676v11.242h7.916v-1.028h-6.733zm-8.588-3.55H1.544V1.028h2.974c.747 0 1.376.112 1.882.332.51.222.893.54 1.152.96.258.42.389.932.389 1.534 0 .592-.13 1.095-.39 1.515-.258.418-.642.736-1.15.959-.507.222-1.136.334-1.883.337zM9.3 11.241 6.565 7.387a3.95 3.95 0 0 0 1.39-.76c.38-.327.668-.726.868-1.189.2-.465.301-.995.301-1.584-.002-.806-.189-1.496-.551-2.07C8.208 1.21 7.683.77 7.003.464 6.32.158 5.502.003 4.55 0H.36v11.242h1.184V7.676H4.55a8.528 8.528 0 0 0 .896-.048l2.558 3.614H9.3z" fill="#08C"/></g><defs><linearGradient id="b" x1="0" y1="88.225" x2="74.663" y2="13.874" gradientUnits="userSpaceOnUse"><stop stop-color="#E5007D"/><stop offset="1" stop-color="#008BD2"/></linearGradient><clipPath id="a"><path fill="#fff" d="M0 0h75v100H0z"/></clipPath></defs></svg>