<svg xmlns="http://www.w3.org/2000/svg" width="202" height="1615" fill="none">
    <path
        d="M192 1403.68H28.38v-39.19c0-11.04 1.347-20.33 4.04-27.88 2.559-7.67 7.003-13.46 13.332-17.37 6.33-4.04 14.948-6.06 25.856-6.06 6.599 0 12.524.61 17.776 1.82 5.252 1.21 9.763 3.3 13.534 6.26 3.636 2.83 6.464 6.8 8.484 11.92L192 1310.35v29.9l-74.942 19.8v13.73H192v29.9zm-93.728-29.9v-9.29c0-5.79-.808-10.37-2.424-13.74-1.75-3.5-4.444-5.99-8.08-7.47-3.77-1.48-8.551-2.22-14.342-2.22-8.215 0-14.342 1.55-18.382 4.64-4.175 2.97-6.262 8.69-6.262 17.17v10.91h49.49zM192 1290.45H28.38v-68.68h21.008v38.78h47.066v-30.5h20.806v30.5h54.136v-39.19H192v69.09zm0-86.81H28.38v-29.69h68.478v-33.33H28.38v-29.9H192v29.9h-73.932v33.33H192v29.69zm2.222-162.8c0 12.12-2.222 21.55-6.666 28.28-4.444 6.74-10.773 11.38-18.988 13.94-8.215 2.56-18.045 3.84-29.492 3.84H28.38v-29.09h114.13c5.117 0 9.965-.34 14.544-1.01 4.444-.67 8.08-2.22 10.908-4.65 2.693-2.55 4.04-6.33 4.04-11.31 0-5.25-1.347-9.02-4.04-11.31-2.828-2.42-6.464-3.97-10.908-4.65-4.579-.8-9.427-1.21-14.544-1.21H28.38v-28.884h110.696c11.447 0 21.277 1.279 29.492 3.838 8.215 2.556 14.544 7.206 18.988 13.936 4.444 6.6 6.666 16.03 6.666 28.28zM192 971.272H28.38v-40.198c0-7.272.673-13.804 2.02-19.594 1.347-5.926 3.636-10.976 6.868-15.15 3.097-4.31 7.34-7.609 12.726-9.898 5.387-2.29 12.187-3.434 20.402-3.434 6.599 0 12.255.942 16.968 2.828 4.713 1.75 8.484 4.376 11.312 7.878 2.693 3.501 4.511 7.878 5.454 13.13 1.077-6.464 3.367-11.784 6.868-15.958 3.367-4.31 7.811-7.474 13.332-9.494 5.521-2.155 12.187-3.232 19.998-3.232 7.811 0 14.746 1.01 20.806 3.03 5.925 1.885 10.908 4.78 14.948 8.686 3.905 3.77 6.868 8.551 8.888 14.342 2.02 5.656 3.03 12.322 3.03 19.998v47.066zm-21.008-29.896v-11.312c0-9.023-2.155-15.15-6.464-18.382-4.444-3.232-11.245-4.848-20.402-4.848-6.599 0-11.918.808-15.958 2.424-4.175 1.481-7.272 4.04-9.292 7.676-2.02 3.501-3.03 8.214-3.03 14.14v10.302h55.146zm-75.75 0v-10.1c0-5.926-.875-10.504-2.626-13.736-1.75-3.232-4.444-5.454-8.08-6.666-3.636-1.347-8.215-2.02-13.736-2.02-5.79 0-10.235 1.01-13.332 3.03-3.232 1.885-5.387 4.78-6.464 8.686-1.212 3.905-1.818 8.888-1.818 14.948v5.858h46.056zM192 809.711H28.38v-39.188c0-11.042 1.347-20.334 4.04-27.876 2.559-7.676 7.003-13.466 13.332-17.372 6.33-4.04 14.948-6.06 25.856-6.06 6.599 0 12.524.606 17.776 1.818 5.252 1.212 9.763 3.3 13.534 6.262 3.636 2.828 6.464 6.801 8.484 11.918L192 716.387v29.896l-74.942 19.796v13.736H192v29.896zm-93.728-29.896v-9.292c0-5.79-.808-10.369-2.424-13.736-1.75-3.501-4.444-5.992-8.08-7.474-3.77-1.481-8.551-2.222-14.342-2.222-8.215 0-14.342 1.549-18.382 4.646-4.175 2.963-6.262 8.686-6.262 17.17v10.908h49.49zM192 696.481H28.38v-68.68h21.008v38.784h47.066v-30.502h20.806v30.502h54.136v-39.188H192v69.084zm2.222-130.439c0 11.986-2.357 21.412-7.07 28.28-4.713 6.734-11.11 11.447-19.19 14.14-8.215 2.694-17.641 4.04-28.28 4.04H81.304c-11.177 0-20.873-1.346-29.088-4.04-8.215-2.693-14.544-7.406-18.988-14.14-4.444-6.868-6.666-16.294-6.666-28.28 0-11.312 1.953-20.132 5.858-26.462 3.77-6.464 9.225-11.042 16.362-13.736 7.137-2.693 15.42-4.04 24.846-4.04h13.736v28.684h-14.14c-4.579 0-8.753.27-12.524.808-3.77.404-6.733 1.684-8.888 3.838-2.29 2.02-3.434 5.589-3.434 10.706 0 5.118 1.212 8.888 3.636 11.312 2.29 2.29 5.454 3.771 9.494 4.444 3.905.674 8.35 1.01 13.332 1.01h71.104c5.925 0 10.841-.471 14.746-1.414 3.771-.942 6.666-2.626 8.686-5.05 1.885-2.558 2.828-5.992 2.828-10.302 0-4.982-1.145-8.484-3.434-10.504-2.424-2.154-5.589-3.501-9.494-4.04-3.905-.538-8.282-.808-13.13-.808H131.4v-28.684h13.13c9.696 0 18.315 1.28 25.856 3.838 7.407 2.559 13.265 7.07 17.574 13.534 4.175 6.33 6.262 15.285 6.262 26.866zm0-109.492c0 11.582-2.155 20.806-6.464 27.674-4.309 6.868-10.504 11.784-18.584 14.746-8.08 2.963-17.641 4.444-28.684 4.444H79.284c-11.043 0-20.47-1.481-28.28-4.444-7.945-2.962-14.005-7.878-18.18-14.746-4.175-6.868-6.262-16.092-6.262-27.674 0-11.85 2.087-21.142 6.262-27.876 4.175-6.868 10.235-11.783 18.18-14.746 7.81-3.097 17.237-4.646 28.28-4.646h61.408c10.908 0 20.402 1.549 28.482 4.646 7.945 2.963 14.14 7.878 18.584 14.746 4.309 6.734 6.464 16.026 6.464 27.876zm-22.018 0c0-4.982-1.077-8.618-3.232-10.908-2.155-2.424-5.117-4.04-8.888-4.848-3.771-.808-7.878-1.212-12.322-1.212H72.416c-4.579 0-8.686.404-12.322 1.212-3.636.808-6.464 2.424-8.484 4.848-2.155 2.29-3.232 5.926-3.232 10.908 0 4.714 1.077 8.282 3.232 10.706 2.02 2.424 4.848 4.04 8.484 4.848 3.636.808 7.743 1.212 12.322 1.212h75.346c4.444 0 8.551-.336 12.322-1.01 3.771-.808 6.733-2.424 8.888-4.848 2.155-2.424 3.232-6.06 3.232-10.908zM192 362.909 28.38 395.835v-26.462l115.746-21.614-115.746-20.2v-27.068L192 333.417v29.492zm0-79.108H28.38v-68.68h21.008v38.784h47.066v-30.502h20.806v30.502h54.136v-39.188H192v69.084zm0-86.402H28.38v-39.188c0-11.043 1.347-20.335 4.04-27.876 2.559-7.676 7.003-13.467 13.332-17.372 6.33-4.04 14.948-6.06 25.856-6.06 6.599 0 12.524.606 17.776 1.818 5.252 1.212 9.763 3.299 13.534 6.262 3.636 2.828 6.464 6.8 8.484 11.918L192 104.075v29.896l-74.942 19.796v13.736H192v29.896zm-93.728-29.896v-9.292c0-5.791-.808-10.37-2.424-13.736-1.75-3.502-4.444-5.993-8.08-7.474-3.77-1.482-8.551-2.222-14.342-2.222-8.215 0-14.342 1.548-18.382 4.646-4.175 2.962-6.262 8.686-6.262 17.17v10.908h49.49zM192 63.315h-62.418L28.38 96.443V68.567l64.842-20.2L28.38 29.379V2.109l101.202 32.724H192v28.482z"
        fill="#fff" />
    <path
        d="M192 1403.68v1h1v-1h-1zm-163.62 0h-1v1h1v-1zm4.04-67.07.942.34.003-.01.004-.01-.949-.32zm13.332-17.37.525.85h.007l.006-.01-.538-.84zm43.632-4.24-.225.97.225-.97zm13.534 6.26-.618.79h.004l.614-.79zm8.484 11.92-.93.37.332.84.871-.25-.273-.96zM192 1310.35h1v-1.32l-1.272.36.272.96zm0 29.9.255.97.745-.2v-.77h-1zm-74.942 19.8-.255-.97-.745.2v.77h1zm0 13.73h-1v1h1v-1zm74.942 0h1v-1h-1v1zm-93.728 0v1h1v-1h-1zm-2.424-23.03.902-.43-.004-.01h-.003l-.895.44zm-8.08-7.47.377-.93h-.011l-.366.93zm-32.724 2.42.579.82.015-.01.015-.01-.609-.8zm-6.262 28.08h-1v1h1v-1zM192 1402.68H28.38v2H192v-2zm-162.62 1v-39.19h-2v39.19h2zm0-39.19c0-10.97 1.339-20.14 3.982-27.54l-1.884-.67c-2.743 7.68-4.098 17.09-4.098 28.21h2zm3.989-27.56c2.491-7.47 6.796-13.07 12.908-16.84l-1.05-1.7c-6.547 4.04-11.13 10.03-13.756 17.91l1.898.63zm12.921-16.85c6.111-3.9 14.52-5.9 25.318-5.9v-2c-11.017 0-19.847 2.04-26.394 6.22l1.076 1.68zm25.318-5.9c6.54 0 12.387.6 17.551 1.79l.45-1.94c-5.34-1.24-11.343-1.85-18-1.85v2zm17.551 1.79c5.127 1.19 9.5 3.22 13.141 6.08l1.236-1.57c-3.9-3.07-8.55-5.21-13.927-6.45l-.45 1.94zm13.145 6.08c3.47 2.7 6.201 6.51 8.168 11.5l1.86-.74c-2.073-5.25-4.997-9.38-8.8-12.34l-1.228 1.58zm9.371 12.09 80.598-22.82-.545-1.93-80.598 22.83.545 1.92zM191 1310.35v29.9h2v-29.9h-2zm.745 28.93-74.942 19.8.51 1.93 74.942-19.79-.51-1.94zm-75.687 20.77v13.73h2v-13.73h-2zm1 14.73H192v-2h-74.942v2zm73.942-1v29.9h2v-29.9h-2zm-91.728 0v-9.29h-2v9.29h2zm0-9.29c0-5.87-.816-10.61-2.522-14.17l-1.803.87c1.525 3.17 2.325 7.58 2.325 13.3h2zm-2.53-14.18c-1.86-3.72-4.737-6.38-8.597-7.96l-.754 1.86c3.412 1.39 5.92 3.71 7.563 6.99l1.789-.89zm-8.608-7.96c-3.926-1.54-8.841-2.29-14.708-2.29v2c5.715 0 10.36.73 13.976 2.15l.732-1.86zm-14.708-2.29c-8.31 0-14.698 1.56-18.99 4.85l1.217 1.59c3.787-2.91 9.654-4.44 17.773-4.44v-2zm-18.96 4.83c-4.576 3.25-6.684 9.39-6.684 17.98h2c0-8.37 2.066-13.67 5.84-16.35l-1.157-1.63zm-6.684 17.98v10.91h2v-10.91h-2zm1 11.91h49.49v-2h-49.49v2zM192 1290.45v1h1v-1h-1zm-163.62 0h-1v1h1v-1zm0-68.68v-1h-1v1h1zm21.008 0h1v-1h-1v1zm0 38.78h-1v1h1v-1zm47.066 0v1h1v-1h-1zm0-30.5v-1h-1v1h1zm20.806 0h1v-1h-1v1zm0 30.5h-1v1h1v-1zm54.136 0v1h1v-1h-1zm0-39.19v-1h-1v1h1zm20.604 0h1v-1h-1v1zm0 68.09H28.38v2H192v-2zm-162.62 1v-68.68h-2v68.68h2zm-1-67.68h21.008v-2H28.38v2zm20.008-1v38.78h2v-38.78h-2zm1 39.78h47.066v-2H49.388v2zm48.066-1v-30.5h-2v30.5h2zm-1-29.5h20.806v-2H96.454v2zm19.806-1v30.5h2v-30.5h-2zm1 31.5h54.136v-2H117.26v2zm55.136-1v-39.19h-2v39.19h2zm-1-38.19H192v-2h-20.604v2zm19.604-1v69.09h2v-69.09h-2zm1-17.72v1h1v-1h-1zm-163.62 0h-1v1h1v-1zm0-29.69v-1h-1v1h1zm68.478 0v1h1v-1h-1zm0-33.33h1v-1h-1v1zm-68.478 0h-1v1h1v-1zm0-29.9v-1h-1v1h1zm163.62 0h1v-1h-1v1zm0 29.9v1h1v-1h-1zm-73.932 0v-1h-1v1h1zm0 33.33h-1v1h1v-1zm73.932 0h1v-1h-1v1zm0 28.69H28.38v2H192v-2zm-162.62 1v-29.69h-2v29.69h2zm-1-28.69h68.478v-2H28.38v2zm69.478-1v-33.33h-2v33.33h2zm-1-34.33H28.38v2h68.478v-2zm-67.478 1v-29.9h-2v29.9h2zm-1-28.9H192v-2H28.38v2zm162.62-1v29.9h2v-29.9h-2zm1 28.9h-73.932v2H192v-2zm-74.932 1v33.33h2v-33.33h-2zm1 34.33H192v-2h-73.932v2zm72.932-1v29.69h2v-29.69h-2zm-3.444-104.83-.835-.55.835.55zm-18.988 13.94.297.95-.297-.95zM28.38 1086.9h-1v1h1v-1zm0-29.09v-1h-1v1h1zm128.674-1.01.146.99h.004l-.15-.99zm10.908-4.65.651.76.019-.01.019-.02-.689-.73zm0-22.62-.651.76h.003l.648-.76zm-10.908-4.65-.174.99h.024l.15-.99zm-128.674-1.21h-1v1h1v-1zm0-28.884v-1h-1v1h1zm140.188 3.838-.297.955.297-.955zm18.988 13.936-.835.55.006.01.829-.56zm5.666 28.28c0 12.02-2.206 21.22-6.501 27.73l1.67 1.1c4.593-6.96 6.831-16.6 6.831-28.83h-2zm-6.501 27.73c-4.308 6.53-10.44 11.04-18.45 13.54l.594 1.9c8.42-2.62 14.946-7.4 19.526-14.34l-1.67-1.1zm-18.45 13.54c-8.093 2.52-17.818 3.79-29.195 3.79v2c11.516 0 21.453-1.29 29.789-3.89l-.594-1.9zm-29.195 3.79H28.38v2h110.696v-2zm-109.696 1v-29.09h-2v29.09h2zm-1-28.09h114.13v-2H28.38v2zm114.13 0c5.161 0 10.058-.34 14.69-1.02l-.291-1.98c-4.526.67-9.325 1-14.399 1v2zm14.694-1.02c4.591-.7 8.412-2.31 11.409-4.88l-1.302-1.52c-2.659 2.28-6.109 3.77-10.407 4.42l.3 1.98zm11.447-4.91c2.953-2.81 4.351-6.88 4.351-12.04h-2c0 4.81-1.295 8.28-3.729 10.59l1.378 1.45zm4.351-12.04c0-5.4-1.385-9.52-4.392-12.07l-1.296 1.52c2.379 2.02 3.688 5.45 3.688 10.55h2zm-4.389-12.07c-2.997-2.57-6.818-4.18-11.409-4.87l-.3 1.97c4.298.65 7.748 2.14 10.407 4.42l1.302-1.52zm-11.385-4.87c-4.642-.82-9.548-1.23-14.718-1.23v2c5.065 0 9.854.4 14.37 1.2l.348-1.97zm-14.718-1.23H28.38v2h114.13v-2zm-113.13 1v-28.884h-2v28.884h2zm-1-27.884h110.696v-2H28.38v2zm110.696 0c11.377 0 21.102 1.272 29.195 3.793l.594-1.91c-8.336-2.597-18.273-3.883-29.789-3.883v2zm29.195 3.793c8.01 2.491 14.142 7.011 18.45 13.531l1.67-1.1c-4.58-6.94-11.106-11.72-19.526-14.341l-.594 1.91zm18.456 13.541c4.287 6.37 6.495 15.57 6.495 27.72h2c0-12.35-2.236-22.01-6.837-28.84l-1.658 1.12zM192 971.272v1h1v-1h-1zm-163.62 0h-1v1h1v-1zm2.02-59.792.974.226.001-.005-.975-.221zm6.868-15.15.79.612.012-.014.01-.015-.812-.583zm12.726-9.898-.391-.921.391.921zm37.37-.606-.371.928.011.005.012.004.348-.937zm11.312 7.878.793-.61-.008-.009-.007-.01-.778.629zm5.454 13.13-.984.176 1.97-.012-.986-.164zm6.868-15.958.766.642.011-.013.011-.014-.788-.615zm13.332-9.494.344.939.01-.004.01-.004-.364-.931zm40.804-.202-.316.949.013.004.303-.953zm14.948 8.686-.695.719.695-.719zm8.888 14.342-.944.329.002.007.942-.336zm-17.978 37.168v1h1v-1h-1zm-6.464-29.694.6-.8-.006-.005-.006-.004-.588.809zm-36.36-2.424.334.942.019-.006.018-.008-.371-.928zm-9.292 7.676.866.499.004-.007.004-.007-.874-.485zm-3.03 24.442h-1v1h1v-1zm-20.604 0v1h1v-1h-1zm-2.626-23.836.88-.477-.88.477zm-8.08-6.666-.347.937.015.006.016.005.316-.948zm-27.068 1.01.504.864.021-.013.021-.014-.546-.837zm-6.464 8.686.955.296.005-.015.004-.015-.964-.266zm-1.818 20.806h-1v1h1v-1zM192 970.272H28.38v2H192v-2zm-162.62 1v-40.198h-2v40.198h2zm0-40.198c0-7.212.668-13.666 1.994-19.368l-1.948-.453c-1.367 5.879-2.046 12.489-2.046 19.821h2zm1.995-19.373c1.32-5.804 3.553-10.716 6.684-14.759l-1.582-1.224c-3.333 4.306-5.678 9.494-7.052 15.54l1.95.443zm6.705-14.788c2.98-4.145 7.07-7.336 12.305-9.561l-.782-1.841c-5.537 2.354-9.932 5.762-13.147 10.235l1.624 1.167zm12.305-9.561c5.224-2.22 11.88-3.354 20.011-3.354v-2c-8.299 0-15.243 1.155-20.793 3.513l.782 1.841zm20.011-3.354c6.508 0 12.031.93 16.597 2.756l.742-1.857c-4.86-1.944-10.65-2.899-17.339-2.899v2zm16.62 2.765c4.565 1.696 8.18 4.223 10.882 7.569l1.556-1.257c-2.954-3.657-6.88-6.381-11.742-8.187l-.696 1.875zm10.867 7.55c2.578 3.351 4.343 7.571 5.263 12.697l1.968-.353c-.965-5.377-2.836-9.911-5.645-13.563l-1.586 1.219zm7.233 12.685c1.054-6.323 3.283-11.467 6.648-15.48l-1.532-1.285c-3.638 4.337-5.988 9.832-7.088 16.436l1.972.329zm6.67-15.507c3.243-4.151 7.528-7.209 12.888-9.17l-.688-1.878c-5.683 2.079-10.286 5.349-13.776 9.817l1.576 1.231zm12.908-9.178c5.375-2.097 11.91-3.163 19.634-3.163v-2c-7.898 0-14.694 1.088-20.362 3.3l.728 1.863zm19.634-3.163c7.726 0 14.552.999 20.49 2.978l.632-1.897c-6.181-2.061-13.227-3.081-21.122-3.081v2zm20.503 2.983c5.794 1.843 10.638 4.665 14.556 8.452l1.39-1.438c-4.162-4.024-9.283-6.993-15.34-8.92l-.606 1.906zm14.556 8.452c3.779 3.649 6.664 8.29 8.639 13.952l1.888-.659c-2.065-5.919-5.106-10.839-9.137-14.732l-1.39 1.439zm8.641 13.959c1.973 5.523 2.972 12.07 2.972 19.662h2c0-7.761-1.021-14.545-3.088-20.335l-1.884.673zM191 924.206v47.066h2v-47.066h-2zm-19.008 17.17v-11.312h-2v11.312h2zm0-11.312c0-9.128-2.172-15.664-6.864-19.182l-1.2 1.6c3.927 2.945 6.064 8.664 6.064 17.582h2zm-6.876-19.191c-4.695-3.415-11.749-5.039-20.99-5.039v2c9.074 0 15.621 1.607 19.814 4.656l1.176-1.617zm-20.99-5.039c-6.667 0-12.127.814-16.329 2.495l.742 1.857c3.878-1.551 9.056-2.352 15.587-2.352v-2zm-16.292 2.481c-4.388 1.557-7.686 4.27-9.832 8.133l1.748.971c1.894-3.408 4.791-5.813 8.752-7.219l-.668-1.885zm-9.824 8.119c-2.139 3.708-3.164 8.615-3.164 14.64h2c0-5.826.995-10.346 2.896-13.641l-1.732-.999zm-3.164 14.64v10.302h2v-10.302h-2zm1 11.302h55.146v-2h-55.146v2zm-19.604-1v-10.1h-2v10.1h2zm0-10.1c0-6.001-.883-10.771-2.747-14.213l-1.758.953c1.637 3.022 2.505 7.41 2.505 13.26h2zm-2.747-14.213c-1.877-3.465-4.777-5.849-8.643-7.138l-.632 1.897c3.406 1.136 5.893 3.196 7.517 6.194l1.758-.953zm-8.612-7.127c-3.783-1.401-8.49-2.082-14.083-2.082v2c5.449 0 9.9.665 13.389 1.957l.694-1.875zM70.8 907.854c-5.884 0-10.55 1.022-13.878 3.192l1.092 1.675c2.867-1.869 7.088-2.867 12.786-2.867v-2zm-13.836 3.166c-3.477 2.028-5.783 5.15-6.924 9.284l1.928.532c1.014-3.677 3.017-6.346 6.004-8.088l-1.008-1.728zm-6.915 9.253c-1.252 4.036-1.863 9.128-1.863 15.245h2c0-6.003.602-10.877 1.773-14.652l-1.91-.593zm-1.863 15.245v5.858h2v-5.858h-2zm1 6.858h46.056v-2H49.186v2zM192 809.711v1h1v-1h-1zm-163.62 0h-1v1h1v-1zm4.04-67.064.942.337.003-.01.004-.011-.949-.316zm13.332-17.372.525.851.007-.004.006-.004-.538-.843zm43.632-4.242-.225.975.225-.975zm13.534 6.262-.618.787.004.003.614-.79zm8.484 11.918-.93.367.332.842.871-.247-.273-.962zM192 716.387h1v-1.322l-1.272.36.272.962zm0 29.896.255.967.745-.197v-.77h-1zm-74.942 19.796-.255-.967-.745.197v.77h1zm0 13.736h-1v1h1v-1zm74.942 0h1v-1h-1v1zm-93.728 0v1h1v-1h-1zm-2.424-23.028.902-.433-.004-.007-.003-.007-.895.447zm-8.08-7.474.377-.926-.011-.005-.366.931zm-32.724 2.424.579.816.015-.011.015-.011-.609-.794zm-6.262 28.078h-1v1h1v-1zM192 808.711H28.38v2H192v-2zm-162.62 1v-39.188h-2v39.188h2zm0-39.188c0-10.968 1.338-20.138 3.982-27.539l-1.884-.673c-2.743 7.681-4.098 17.095-4.098 28.212h2zm3.989-27.56c2.491-7.474 6.796-13.066 12.908-16.837l-1.05-1.702c-6.547 4.04-11.13 10.03-13.756 17.907l1.898.632zm12.921-16.845c6.111-3.901 14.519-5.903 25.318-5.903v-2c-11.017 0-19.847 2.038-26.394 6.217l1.076 1.686zm25.318-5.903c6.54 0 12.387.601 17.551 1.793l.45-1.949c-5.34-1.233-11.343-1.844-18.001-1.844v2zm17.551 1.793c5.127 1.183 9.5 3.212 13.141 6.074l1.236-1.573c-3.9-3.064-8.55-5.209-13.927-6.45l-.45 1.949zm13.145 6.077c3.47 2.698 6.201 6.512 8.168 11.495l1.86-.734c-2.073-5.251-4.997-9.383-8.8-12.34l-1.228 1.579zm9.371 12.09 80.598-22.826-.545-1.924-80.598 22.826.545 1.924zM191 716.387v29.896h2v-29.896h-2zm.745 28.929-74.942 19.796.51 1.934 74.942-19.796-.51-1.934zm-75.687 20.763v13.736h2v-13.736h-2zm1 14.736H192v-2h-74.942v2zm73.942-1v29.896h2v-29.896h-2zm-91.728 0v-9.292h-2v9.292h2zm0-9.292c0-5.866-.816-10.613-2.522-14.169l-1.803.866c1.525 3.178 2.325 7.588 2.325 13.303h2zm-2.53-14.183c-1.86-3.719-4.737-6.38-8.597-7.953l-.754 1.852c3.412 1.39 5.92 3.712 7.563 6.995l1.789-.894zm-8.608-7.958c-3.926-1.542-8.842-2.291-14.708-2.291v2c5.715 0 10.36.732 13.976 2.153l.732-1.862zm-14.708-2.291c-8.31 0-14.698 1.561-18.99 4.853l1.217 1.587c3.787-2.904 9.654-4.44 17.773-4.44v-2zm-18.96 4.831c-4.576 3.246-6.684 9.391-6.684 17.985h2c0-8.373 2.066-13.676 5.84-16.354l-1.157-1.631zm-6.684 17.985v10.908h2v-10.908h-2zm1 11.908h49.49v-2h-49.49v2zM192 696.481v1h1v-1h-1zm-163.62 0h-1v1h1v-1zm0-68.68v-1h-1v1h1zm21.008 0h1v-1h-1v1zm0 38.784h-1v1h1v-1zm47.066 0v1h1v-1h-1zm0-30.502v-1h-1v1h1zm20.806 0h1v-1h-1v1zm0 30.502h-1v1h1v-1zm54.136 0v1h1v-1h-1zm0-39.188v-1h-1v1h1zm20.604 0h1v-1h-1v1zm0 68.084H28.38v2H192v-2zm-162.62 1v-68.68h-2v68.68h2zm-1-67.68h21.008v-2H28.38v2zm20.008-1v38.784h2v-38.784h-2zm1 39.784h47.066v-2H49.388v2zm48.066-1v-30.502h-2v30.502h2zm-1-29.502h20.806v-2H96.454v2zm19.806-1v30.502h2v-30.502h-2zm1 31.502h54.136v-2H117.26v2zm55.136-1v-39.188h-2v39.188h2zm-1-38.188H192v-2h-20.604v2zm19.604-1v69.084h2v-69.084h-2zm-3.848-33.075.819.574.006-.008-.825-.566zm-19.19 14.14.312.951.004-.002-.316-.949zm-115.746 0 .312-.95-.312.95zm-18.988-14.14-.84.544.005.007.835-.551zm-.808-54.742.851.525.007-.01.006-.011-.864-.504zm16.362-13.736.353.936-.353-.936zm38.582-4.04h1v-1h-1v1zm0 28.684v1h1v-1h-1zm-26.664.808.106.995.018-.002.017-.003-.141-.99zm-8.888 3.838.662.75.023-.02.022-.023-.707-.707zm.202 22.018.707-.707-.707.707zm9.494 4.444.17-.985-.006-.001-.164.986zm99.182-.404.235.972.008-.001-.243-.971zm8.686-5.05.768.641.019-.023.018-.024-.805-.594zm-.606-20.806-.664.748.002.002.662-.75zm-9.494-4.04.137-.99-.137.99zm-27.876-.808h-1v1h1v-1zm0-28.684v-1h-1v1h1zm38.986 3.838.327-.945-.006-.002-.321.947zm17.574 13.534.835-.55-.003-.004-.832.554zm5.262 26.866c0 11.868-2.336 21.071-6.894 27.715l1.649 1.131c4.867-7.093 7.245-16.743 7.245-28.846h-2zm-6.889 27.707c-4.586 6.551-10.803 11.137-18.687 13.765l.632 1.897c8.276-2.758 14.852-7.599 19.693-14.515l-1.638-1.147zm-18.683 13.763c-8.094 2.654-17.412 3.99-27.968 3.99v2c10.721 0 20.256-1.356 28.592-4.089l-.624-1.901zm-27.968 3.99H81.304v2h58.378v-2zm-58.378 0c-11.1 0-20.687-1.338-28.776-3.99l-.623 1.901c8.34 2.734 18.145 4.089 29.399 4.089v-2zm-28.776-3.99c-8.017-2.628-14.155-7.209-18.465-13.74l-1.67 1.101c4.578 6.936 11.099 11.781 19.511 14.54l.624-1.901zm-18.46-13.733c-4.302-6.647-6.506-15.859-6.506-27.737h-2c0 12.094 2.24 21.735 6.826 28.824l1.68-1.087zm-6.506-27.737c0-11.216 1.94-19.827 5.71-25.937l-1.703-1.05c-4.04 6.549-6.007 15.579-6.007 26.987h2zm5.722-25.958c3.652-6.261 8.924-10.69 15.851-13.304l-.706-1.871c-7.348 2.772-12.984 7.501-16.873 14.168l1.728 1.007zm15.851-13.304c7.002-2.642 15.16-3.976 24.493-3.976v-2c-9.52 0-17.926 1.36-25.199 4.105l.706 1.871zm24.493-3.976h13.736v-2H73.628v2zm12.736-1v28.684h2v-28.684h-2zm1 27.684h-14.14v2h14.14v-2zm-14.14 0c-4.617 0-8.84.272-12.665.818l.282 1.98c3.716-.53 7.843-.798 12.383-.798v-2zm-12.63.814c-3.941.422-7.137 1.773-9.49 4.125l1.415 1.414c1.957-1.956 4.687-3.165 8.288-3.55l-.214-1.989zm-9.444 4.083c-2.613 2.305-3.772 6.238-3.772 11.455h2c0-5.017 1.13-8.221 3.096-9.956l-1.324-1.499zm-3.772 11.455c0 5.254 1.242 9.333 3.929 12.019l1.414-1.414c-2.161-2.161-3.343-5.623-3.343-10.605h-2zm3.929 12.019c2.472 2.472 5.846 4.025 10.037 4.724l.328-1.973c-3.889-.648-6.844-2.058-8.95-4.165l-1.415 1.414zm10.031 4.723c3.974.685 8.476 1.024 13.502 1.024v-2c-4.94 0-9.325-.333-13.162-.995l-.34 1.971zm13.502 1.024h71.104v-2H74.84v2zm71.104 0c5.971 0 10.972-.474 14.981-1.442l-.47-1.944c-3.801.918-8.631 1.386-14.511 1.386v2zm14.989-1.443c3.928-.982 7.027-2.759 9.211-5.38l-1.536-1.281c-1.856 2.227-4.547 3.817-8.161 4.72l.486 1.941zm9.248-5.427c2.05-2.783 3.023-6.448 3.023-10.896h-2c0 4.171-.912 7.374-2.633 9.709l1.61 1.187zm3.023-10.896c0-5.093-1.164-8.952-3.772-11.253l-1.324 1.499c1.971 1.739 3.096 4.882 3.096 9.754h2zm-3.77-11.251c-2.601-2.312-5.963-3.723-10.021-4.283l-.274 1.981c3.752.517 6.72 1.8 8.967 3.797l1.328-1.495zm-10.021-4.283c-3.96-.546-8.383-.818-13.267-.818v2c4.812 0 9.142.268 12.993.799l.274-1.981zm-13.267-.818H131.4v2h14.746v-2zm-13.746 1v-28.684h-2v28.684h2zm-1-27.684h13.13v-2H131.4v2zm13.13 0c9.61 0 18.117 1.269 25.535 3.785l.642-1.894c-7.664-2.6-16.395-3.891-26.177-3.891v2zm25.53 3.784c7.201 2.487 12.881 6.863 17.068 13.143l1.664-1.109c-4.432-6.648-10.468-11.295-18.079-13.925l-.653 1.891zm17.065 13.139c4.024 6.101 6.097 14.834 6.097 26.315h2c0-11.681-2.102-20.858-6.427-27.416l-1.67 1.101zm.633-55.503-.847-.531.847.531zM51.004 498.971l.355-.936-.006-.001-.349.937zm-18.18-14.747.855-.519-.855.519zm0-55.55.85.527.005-.007-.855-.52zm18.18-14.746.35.937.01-.003.009-.004-.369-.93zm118.17 0-.358.934.009.003.349-.937zm18.584 14.746.842-.539-.002-.004-.84.543zm-18.786 16.969-.747.664.009.01.01.011.728-.685zm-8.888-4.849.21-.977-.21.977zm-99.99 0-.217-.976.217.976zm-8.484 4.849.728.685.02-.022.02-.023-.768-.64zm0 21.613.768-.64-.01-.012-.01-.012-.748.664zm8.484 4.848-.217.977.217-.977zm99.99.203.176.984.017-.003.017-.004-.21-.977zm8.888-4.849-.747-.664.747.664zm24.25-10.908c0 11.47-2.136 20.489-6.311 27.143l1.694 1.063c4.443-7.082 6.617-16.513 6.617-28.206h-2zm-6.311 27.143c-4.184 6.668-10.196 11.447-18.081 14.339l.688 1.877c8.275-3.034 14.652-8.085 19.087-15.153l-1.694-1.063zm-18.081 14.339c-7.944 2.912-17.383 4.382-28.34 4.382v2c11.128 0 20.812-1.492 29.028-4.505l-.688-1.877zm-28.34 4.382H79.284v2h61.206v-2zm-61.206 0c-10.958 0-20.258-1.47-27.925-4.378l-.71 1.87c7.954 3.016 17.508 4.508 28.635 4.508v-2zm-27.93-4.38c-7.748-2.889-13.624-7.664-17.675-14.329l-1.71 1.039c4.299 7.071 10.542 12.127 18.686 15.163l.698-1.873zm-17.675-14.329c-4.047-6.657-6.117-15.68-6.117-27.155h-2c0 11.689 2.105 21.115 6.407 28.194l1.71-1.039zm-6.117-27.155c0-11.75 2.072-20.833 6.112-27.349l-1.7-1.053c-4.31 6.951-6.412 16.452-6.412 28.402h2zm6.116-27.356c4.052-6.665 9.928-11.44 17.675-14.329l-.698-1.873c-8.144 3.036-14.387 8.092-18.686 15.163l1.71 1.039zm17.695-14.336c7.663-3.039 16.957-4.576 27.911-4.576v-2c-11.131 0-20.69 1.561-28.649 4.717l.738 1.859zm27.911-4.576h61.408v-2H79.284v2zm61.408 0c10.816 0 20.184 1.536 28.124 4.58l.716-1.867c-8.22-3.151-17.84-4.713-28.84-4.713v2zm28.133 4.583c7.751 2.891 13.771 7.672 18.093 14.353l1.68-1.087c-4.566-7.055-10.936-12.105-19.075-15.139l-.698 1.873zm18.091 14.349c4.168 6.512 6.306 15.59 6.306 27.336h2c0-11.955-2.171-21.46-6.622-28.415l-1.684 1.079zm-13.712 27.336c0-5.094-1.097-9.035-3.504-11.593l-1.456 1.371c1.902 2.021 2.96 5.352 2.96 10.222h2zm-3.485-11.572c-2.321-2.611-5.487-4.317-9.425-5.161l-.42 1.955c3.604.772 6.363 2.298 8.351 4.535l1.494-1.329zm-9.425-5.161c-3.849-.825-8.028-1.234-12.532-1.234v2c4.384 0 8.42.398 12.112 1.189l.42-1.955zm-12.532-1.234H72.416v2h75.346v-2zm-75.346 0c-4.636 0-8.818.408-12.539 1.235l.434 1.953c3.55-.789 7.583-1.188 12.105-1.188v-2zm-12.539 1.235c-3.811.847-6.85 2.561-9.035 5.184l1.536 1.281c1.854-2.225 4.472-3.743 7.933-4.512l-.434-1.953zm-8.995 5.139c-2.407 2.558-3.504 6.499-3.504 11.593h2c0-4.87 1.058-8.201 2.96-10.222l-1.456-1.371zm-3.504 11.593c0 4.85 1.107 8.696 3.485 11.371l1.494-1.329c-1.931-2.173-2.979-5.464-2.979-10.042h-2zm3.464 11.347c2.186 2.623 5.224 4.337 9.035 5.184l.434-1.953c-3.46-.769-6.079-2.287-7.933-4.512l-1.536 1.281zm9.035 5.184c3.721.827 7.903 1.235 12.539 1.235v-2c-4.522 0-8.554-.399-12.105-1.188l-.434 1.953zm12.539 1.235h75.346v-2H72.416v2zm75.346 0c4.494 0 8.661-.34 12.498-1.025l-.352-1.969c-3.704.662-7.752.994-12.146.994v2zm12.532-1.032c3.938-.844 7.104-2.55 9.425-5.161l-1.494-1.329c-1.988 2.237-4.747 3.763-8.351 4.535l.42 1.955zm9.425-5.161c2.382-2.679 3.485-6.597 3.485-11.573h-2c0 4.721-1.052 8.075-2.979 10.244l1.494 1.329zM192 362.909l.197.981.803-.162v-.819h-1zM28.38 395.835h-1v1.222l1.197-.241-.197-.981zm0-26.462-.184-.983-.816.153v.83h1zm115.746-21.614.184.983-.012-1.968-.172.985zm-115.746-20.2h-1v.841l.828.144.172-.985zm0-27.068.197-.98-1.197-.241v1.221h1zM192 333.417h1v-.818l-.803-.162-.197.98zm-.197 28.512-163.62 32.926.394 1.961 163.62-32.926-.394-1.961zM29.38 395.835v-26.462h-2v26.462h2zm-.816-25.479 115.746-21.614-.368-1.966L28.196 368.39l.368 1.966zm115.734-23.582-115.746-20.2-.344 1.97 115.746 20.2.344-1.97zM29.38 327.559v-27.068h-2v27.068h2zm-1.197-26.087 163.62 32.926.394-1.961-163.62-32.926-.394 1.961zM191 333.417v29.492h2v-29.492h-2zm1-49.616v1h1v-1h-1zm-163.62 0h-1v1h1v-1zm0-68.68v-1h-1v1h1zm21.008 0h1v-1h-1v1zm0 38.784h-1v1h1v-1zm47.066 0v1h1v-1h-1zm0-30.502v-1h-1v1h1zm20.806 0h1v-1h-1v1zm0 30.502h-1v1h1v-1zm54.136 0v1h1v-1h-1zm0-39.188v-1h-1v1h1zm20.604 0h1v-1h-1v1zm0 68.084H28.38v2H192v-2zm-162.62 1v-68.68h-2v68.68h2zm-1-67.68h21.008v-2H28.38v2zm20.008-1v38.784h2v-38.784h-2zm1 39.784h47.066v-2H49.388v2zm48.066-1v-30.502h-2v30.502h2zm-1-29.502h20.806v-2H96.454v2zm19.806-1v30.502h2v-30.502h-2zm1 31.502h54.136v-2H117.26v2zm55.136-1v-39.188h-2v39.188h2zm-1-38.188H192v-2h-20.604v2zm19.604-1v69.084h2v-69.084h-2zm1-17.318v1h1v-1h-1zm-163.62 0h-1v1h1v-1zm4.04-67.064.942.336.003-.01.004-.01-.949-.316zm13.332-17.372.525.851.007-.004.006-.004-.538-.843zm43.632-4.242-.225.974.225-.974zm13.534 6.262-.618.786.004.003.614-.789zm8.484 11.918-.93.367.332.841.87-.246-.272-.962zM192 104.075h1v-1.323l-1.272.361.272.962zm0 29.896.255.966.745-.196v-.77h-1zm-74.942 19.796-.255-.967-.745.197v.77h1zm0 13.736h-1v1h1v-1zm74.942 0h1v-1h-1v1zm-93.728 0v1h1v-1h-1zm-2.424-23.028.901-.433-.003-.007-.004-.008-.894.448zm-8.08-7.474.377-.926-.011-.005-.366.931zm-32.724 2.424.579.815.015-.011.014-.011-.608-.793zm-6.262 28.078h-1v1h1v-1zM192 196.399H28.38v2H192v-2zm-162.62 1v-39.188h-2v39.188h2zm0-39.188c0-10.969 1.338-20.139 3.982-27.54l-1.884-.673c-2.743 7.682-4.098 17.096-4.098 28.213h2zm3.989-27.56c2.491-7.475 6.796-13.066 12.908-16.837l-1.05-1.702c-6.547 4.039-11.13 10.029-13.756 17.906l1.898.633zm12.921-16.845c6.111-3.901 14.519-5.903 25.318-5.903v-2c-11.017 0-19.847 2.038-26.394 6.217l1.076 1.686zm25.318-5.903c6.54 0 12.387.6 17.551 1.792l.45-1.949c-5.34-1.232-11.343-1.843-18.001-1.843v2zm17.551 1.792c5.127 1.183 9.5 3.213 13.141 6.074l1.236-1.573c-3.9-3.064-8.55-5.209-13.927-6.45l-.45 1.949zm13.145 6.077c3.47 2.699 6.201 6.513 8.168 11.496l1.86-.734c-2.073-5.252-4.998-9.383-8.8-12.341l-1.228 1.579zm9.37 12.091 80.598-22.826-.544-1.924-80.598 22.826.544 1.924zM191 104.075v29.896h2v-29.896h-2zm.745 28.929L116.803 152.8l.51 1.934 74.942-19.797-.51-1.933zm-75.687 20.763v13.736h2v-13.736h-2zm1 14.736H192v-2h-74.942v2zm73.942-1v29.896h2v-29.896h-2zm-91.728 0v-9.292h-2v9.292h2zm0-9.292c0-5.866-.816-10.613-2.523-14.169l-1.802.865c1.525 3.178 2.325 7.588 2.325 13.304h2zm-2.53-14.184c-1.86-3.719-4.737-6.38-8.597-7.952l-.754 1.852c3.412 1.39 5.92 3.711 7.563 6.995l1.788-.895zm-8.608-7.957c-3.926-1.542-8.842-2.291-14.708-2.291v2c5.715 0 10.36.732 13.976 2.152l.732-1.861zm-14.708-2.291c-8.31 0-14.698 1.561-18.99 4.852l1.216 1.587c3.788-2.903 9.654-4.439 17.774-4.439v-2zm-18.96 4.83c-4.576 3.247-6.684 9.391-6.684 17.986h2c0-8.374 2.066-13.676 5.84-16.355l-1.157-1.631zm-6.684 17.986v10.908h2v-10.908h-2zm1 11.908h49.49v-2h-49.49v2zM192 63.315v1h1v-1h-1zm-62.418 0v-1h-.16l-.151.05.311.95zM28.38 96.443h-1v1.38l1.311-.43-.311-.95zm0-27.876-.297-.955-.703.22v.735h1zm64.842-20.2.297.955 3.16-.985-3.176-.93-.281.96zM28.38 29.379h-1v.75l.719.21.281-.96zm0-27.27.308-.952L27.38.734V2.11h1zm101.202 32.724-.308.951.15.049h.158v-1zm62.418 0h1v-1h-1v1zm0 27.482h-62.418v2H192v-2zm-62.729.05L28.069 95.493l.622 1.9 101.202-33.128-.622-1.9zM29.38 96.442V68.567h-2v27.876h2zm-.703-26.921 64.842-20.2-.594-1.91-64.842 20.2.594 1.91zm64.826-22.115L28.661 28.42l-.562 1.92 64.842 18.988.562-1.92zM29.38 29.38V2.109h-2v27.27h2zM28.072 3.06l101.202 32.724.616-1.903L28.688 1.157l-.616 1.903zm101.51 32.773H192v-2h-62.418v2zm61.418-1v28.482h2V34.833h-2z"
        fill="#CDDCE8" />
    <g clip-path="url(#a)">
        <path fill-rule="evenodd" clip-rule="evenodd"
            d="M160.934 1533.08a5257.04 5257.04 0 0 1-34.885 26.17c-2.492 1.64-4.983 3.28-7.513 4.92 0 .45-.52 1.27-1.562 2.46-.893.75-.67 1.79.67 3.14h2.232c9.409-6.71 16.624-12.23 21.644-16.56 7.774-6.71 14.282-13.42 19.414-20.13m-77.877 16.56c-2.678-.75-5.876-1.12-9.595-1.12-4.166 0-8.182.63-12.05 1.9a35.515 35.515 0 0 0-10.71 5.7c-5.505 4.18-9.187 8.39-11.047 12.64-1.859 4.25-2.789 10.55-2.789 18.9 0 3.43 1.487 5.15 4.462 5.15h64.936c1.041 0 2.008-.6 2.901-1.79 0-4.33-.112-7.76-.335-10.29-.223-2.54-.855-5.15-1.897-7.83-1.19-5.22-4.164-9.99-8.925-14.32-4.76-4.32-9.744-7.3-14.95-8.94zm7.81-8.51c-4.909-3.13-10.86-4.69-17.851-4.69-6.992 0-13.092 1.56-18.298 4.69-3.72 2.24-6.47 4.25-8.256 6.04-1.19 1.05-3.422 4.11-6.694 9.18-.447 1.49-.67 2.38-.67 2.68.447 0 .893-.07 1.339-.22 4.611-5.67 9.744-10.03 15.396-13.09 5.653-3.06 11.9-4.59 18.744-4.59 5.207.6 10.34 2.24 15.397 4.93 3.57 1.93 8.181 5.07 13.835 9.39-1.041-2.98-3.496-6.19-7.364-9.62a455.35 455.35 0 0 1-5.578-4.7zm93.275 62.41c.892 0 1.488.64 1.785 1.91.297 1.26.446 2.12.446 2.57 0 2.83-.595 4.25-1.784 4.25-.745 0-1.488-.23-2.232-.67-.893-.6-1.636-.9-2.231-.9H37.312c-.446 0-1.04.15-1.785.45-1.934.74-3.273 1.12-4.016 1.12-1.19 0-1.786-1.27-1.786-3.81 0-3.28 1.041-4.92 3.125-4.92h151.292zm5.133-118.78v6.27c0 7.9-1.86 15.66-5.579 23.26-2.975 6.12-7.661 12.9-14.058 20.36-2.975 3.43-8.852 9.62-17.628 18.56a418.812 418.812 0 0 1-34.365 26.4c-1.19 2.24-1.785 4.47-1.785 6.71v2.68c.298 2.54 1.637 3.81 4.016 3.81h59.357c.595 0 1.339-.3 2.231-.9.893-.59 2.008-.89 3.348-.89.149 0 .372.3.669.89.447 1.2.67 2.54.67 4.03 0 2.68-.521 4.03-1.562 4.03H33.743c-.893 0-1.786-.6-2.678-1.79-.893-1.2-1.34-2.39-1.34-3.58 0-14.32.968-24.83 2.901-31.54 3.906-13.28 11.79-23.27 23.729-29.98 4.313-2.38 9.706-3.58 16.103-3.58 7.029 0 12.905 1.31 17.703 3.92 4.76 2.61 8.777 5.78 12.05 9.5 3.31 3.73 6.062 7.91 8.293 12.53 1.041 1.19 2.306 1.79 3.794 1.79 1.042 0 2.194-.45 3.385-1.34 14.765-9.4 28.041-19.76 39.831-31.09 14.021-13.43 24.285-26.77 30.868-40.05h.893zm-28.34 16.56c-11.641 8.79-23.244 17.52-34.885 26.17-2.492 1.64-4.983 3.28-7.513 4.92 0 .45-.52 1.27-1.562 2.46-.893.75-.67 1.79.67 3.13h2.231c9.41-6.71 16.624-12.23 21.645-16.55 7.773-6.71 14.282-13.42 19.414-20.13zm-70.067 8.05c-4.91-3.13-10.86-4.7-17.852-4.7-6.991 0-13.091 1.57-18.298 4.7-3.718 2.24-6.47 4.25-8.255 6.04-1.19 1.04-3.422 4.1-6.694 9.17-.447 1.49-.67 2.39-.67 2.68.447 0 .893-.07 1.339-.22 4.61-5.67 9.744-10.03 15.396-13.08 5.653-3.06 11.9-4.59 18.744-4.59 5.206.6 10.34 2.24 15.397 4.92 3.57 1.94 8.181 5.07 13.835 9.4-1.041-2.99-3.496-6.19-7.364-9.62a779.5 779.5 0 0 1-5.579-4.7zm5.78 51.67c-.155-.15-.311-.29-.47-.43-4.016-3.65-8.655-6.8-13.893-8.36-2.776-.82-5.942-1-8.823-1-3.818 0-7.573.57-11.202 1.76-3.599 1.18-6.896 2.98-9.903 5.28a54.157 54.157 0 0 0-3.326 2.75h47.616zm9.791 28.93c-.009-2.99-.062-6.04-.323-9-.059-.67-.168-1.35-.31-2.03H40.009c-.334 3.03-.416 6.1-.416 8.72 0 1.53.117 2.41 1.736 2.41h64.931c.05-.01.112-.05.179-.1zm-69.093-43.4c4.44-6.46 10.332-11.78 17.684-15.88 5.281-2.94 11.449-3.92 17.427-3.92 6.552 0 13.197 1.07 19.007 4.25 4.815 2.63 9.148 5.97 12.787 10.09a58.399 58.399 0 0 1 4.249 5.45 30.42 30.42 0 0 0-1.568-5.43c-1.19-5.22-4.164-9.99-8.925-14.31-4.76-4.33-9.744-7.31-14.95-8.95-2.678-.75-5.877-1.12-9.596-1.12-4.166 0-8.182.64-12.05 1.9a35.323 35.323 0 0 0-10.71 5.71c-5.505 4.17-9.187 8.38-11.047 12.63-1.088 2.49-1.858 5.68-2.31 9.58h.002zm64.742 21.63H42.987c-.31.54-.59 1.1-.835 1.66-.267.61-.506 1.25-.721 1.92h62.248c-.462-1.25-.99-2.44-1.591-3.58zm87.187-115.2v6.26c0 7.91-1.86 15.66-5.579 23.27-2.975 6.11-7.661 12.9-14.058 20.35-2.975 3.43-8.852 9.62-17.628 18.57a423.295 423.295 0 0 1-34.365 26.4c-1.059 1.99-1.647 3.98-1.763 5.97.095-.06.18-.12.251-.17 13.681-9.47 27.459-19.27 39.496-30.82 11.831-11.35 22.983-24.51 30.312-39.28l.753-1.52h5.307v9c0 8.58-2.102 16.76-5.857 24.46-3.672 7.53-8.995 14.63-14.445 20.94-5.736 6.65-11.389 12.77-17.832 18.78a168.747 168.747 0 0 1-6.585 5.83h31.952c.595 0 1.339-.3 2.231-.89.892-.6 2.008-.9 3.347-.9.149 0 .372.3.67.9.447 1.19.67 2.53.67 4.02 0 2.69-.521 4.03-1.562 4.03h-46.278a321.98 321.98 0 0 1-4.808 3.58h50.64c.893 0 1.488.63 1.785 1.9.297 1.27.446 2.12.446 2.57 0 2.84-.595 4.25-1.784 4.25-.744 0-1.488-.22-2.232-.67-.893-.6-1.636-.89-2.231-.89h-56.71l-3.655 2.52c-.728 1.53-1.175 3.15-1.175 4.86 0 .83-.053 1.7-.005 2.52.059 1.01.296 1.23 1.296 1.23h59.275c.231-.06.621-.31.8-.43 1.451-.97 3.133-1.36 4.86-1.36 1.603 0 2.587 1.21 3.168 2.54.701 1.61.897 3.37.897 5.12 0 2.02-.354 4.64-1.902 5.94.796.73 1.333 1.77 1.606 2.94.229.97.519 2.2.519 3.2 0 2.95-.752 6.98-4.511 6.98-1.321 0-2.575-.39-3.689-1.1-.2-.12-.623-.39-.876-.47H37.334c-.227.03-.6.18-.81.26-1.438.57-3.457 1.31-5.013 1.31-3.602 0-4.511-3.6-4.511-6.53s.88-5.92 3.314-7.12a8.727 8.727 0 0 1-1.43-1.54c-1.143-1.52-1.884-3.28-1.884-5.21 0-9.56.22-21.93 2.743-31.36a4.559 4.559 0 0 1-.018-.41c0-14.32.968-24.83 2.901-31.54 3.906-13.27 11.79-23.26 23.729-29.97 4.313-2.39 9.706-3.58 16.103-3.58 7.029 0 12.905 1.3 17.703 3.91 4.76 2.61 8.777 5.78 12.05 9.51 3.31 3.73 6.062 7.9 8.293 12.52 1.041 1.2 2.306 1.79 3.794 1.79 1.042 0 2.194-.44 3.385-1.34 14.765-9.39 28.041-19.76 39.831-31.09 14.021-13.42 24.285-26.77 30.868-40.04h.893z"
            fill="#EAEFF3" />
    </g>
    <defs>
        <clipPath id="a">
            <path fill="#fff" transform="rotate(-90 821 794)" d="M0 0h162v165H0z" />
        </clipPath>
    </defs>
</svg>