<svg width="15" height="10" viewBox="0 0 15 10" fill="none" xmlns="http://www.w3.org/2000/svg">
<path id="Vector" d="M0.506483 0C1.03099 0 1.83025 0 2.27983 0C2.50462 0 2.67945 0.14986 2.75438 0.349674C2.97917 0.999068 3.47871 2.42274 4.05317 3.39683C4.82745 4.67064 5.32698 5.1452 5.65168 5.09524C5.97638 5.02031 5.87647 4.17111 5.87647 3.49674C5.87647 2.82237 5.9514 1.67344 5.6267 1.14893L5.12717 0.424604C5.00229 0.249767 5.12717 0.0249768 5.32698 0.0249768H8.17433C8.44907 0.0249768 8.67386 0.249767 8.67386 0.524511V4.14613C8.67386 4.14613 8.79874 4.79552 9.49809 4.12115C10.1974 3.44678 10.9467 2.19795 11.5712 0.924138L11.8209 0.324697C11.8959 0.14986 12.0707 0.0249768 12.2705 0.0249768H14.1188C14.4685 0.0249768 14.7182 0.374651 14.5933 0.699347L14.3935 1.22386C14.3935 1.22386 13.7192 2.5726 13.0198 3.52171C12.3205 4.4958 12.1706 4.72059 12.2705 4.97036C12.3704 5.22013 14.1687 6.89357 14.6183 7.69282C14.7432 7.91761 14.8431 8.11742 14.943 8.29226C15.1178 8.61696 14.8681 9.04156 14.4934 9.04156H12.3954C12.2205 9.04156 12.0457 8.94165 11.9708 8.79179L11.771 8.4671C11.771 8.4671 10.4972 6.9685 9.72288 6.49394C8.92363 6.04436 8.9486 6.69375 8.9486 6.69375V8.01752C8.9486 8.567 8.49902 9.01658 7.94954 9.01658H7.45C7.45 9.01658 4.70257 9.01658 2.50462 5.74464C0.781226 3.19702 0.206763 1.54855 0.00694923 0.59944C-0.0430041 0.29972 0.181786 0 0.506483 0Z" fill="white"/>
</svg>
