<svg width="61" height="54" fill="none" xmlns="http://www.w3.org/2000/svg"><g clip-path="url(#a)"><path d="M41.201 14.681H6.612a.872.872 0 0 0-.88.862v16.07c0 .475.394.861.88.861h34.59a.872.872 0 0 0 .88-.861v-16.07a.872.872 0 0 0-.88-.862zm-.88 16.07h-9.802v-5.14a.871.871 0 0 0-.881-.862.872.872 0 0 0-.881.862v5.14h-9.75v-5.14a.872.872 0 0 0-.882-.862.872.872 0 0 0-.88.862v5.14H7.493V16.405H40.32V30.75zm1.762-20.02v.795a.872.872 0 0 1-.882.861.872.872 0 0 1-.88-.861v-.794c0-1.85-1.54-3.354-3.43-3.354H10.922c-1.89 0-3.43 1.504-3.43 3.354v.794a.872.872 0 0 1-.88.861.872.872 0 0 1-.882-.861v-.794c0-2.8 2.33-5.078 5.192-5.078H36.89c2.863 0 5.193 2.278 5.193 5.078zM41.2 42.506H6.612a.872.872 0 0 0-.88.862v6.597c0 .476.394.861.88.861h34.59a.872.872 0 0 0 .88-.861v-6.597a.872.872 0 0 0-.88-.861zm-.88 6.597H7.493v-4.873H40.32v4.873zM9.94 20.007c0-.477.394-.862.88-.862h4.565c.298 0 .575.146.738.39.163.244.189.551.07.818l-3.297 7.351a.883.883 0 0 1-.808.516.895.895 0 0 1-.353-.073.854.854 0 0 1-.454-1.135l2.755-6.144h-3.215a.872.872 0 0 1-.882-.861zm10.726 0c0-.477.394-.862.881-.862h4.565c.297 0 .575.146.738.39.163.244.189.551.069.818l-3.297 7.351a.883.883 0 0 1-.807.516.895.895 0 0 1-.354-.073.854.854 0 0 1-.453-1.135l2.755-6.144h-3.216a.871.871 0 0 1-.881-.861zm10.801 0c0-.477.395-.862.881-.862h4.565c.298 0 .575.146.738.39.163.244.189.551.07.818l-3.298 7.351a.883.883 0 0 1-.807.516.895.895 0 0 1-.354-.073.854.854 0 0 1-.453-1.135l2.755-6.144H32.35a.872.872 0 0 1-.882-.861zM61 16.534c0-2.363-1.965-4.284-4.381-4.284-2.416 0-4.38 1.921-4.38 4.284 0 2.067 1.504 3.797 3.499 4.197v17.88h-3.005V35.58a.872.872 0 0 0-.881-.861h-4.19V10.484C47.661 4.703 42.851 0 36.94 0H10.72C4.808 0 0 4.703 0 10.484v42.654c0 .476.394.862.881.862a.872.872 0 0 0 .881-.862V10.484c0-4.83 4.019-8.76 8.958-8.76h26.221c4.94 0 8.958 3.93 8.958 8.76v42.654c0 .476.395.862.881.862a.872.872 0 0 0 .881-.862V44.23h4.191a.872.872 0 0 0 .881-.862v-3.031h3.886a.872.872 0 0 0 .881-.862V20.732c1.995-.4 3.5-2.13 3.5-4.198zm-10.03 25.97h-3.31v-6.063h3.31v6.063zm5.649-23.41c-1.444 0-2.618-1.148-2.618-2.56 0-1.412 1.174-2.56 2.618-2.56 1.443 0 2.618 1.148 2.618 2.56 0 1.412-1.175 2.56-2.618 2.56zm-43.591 20.46c-1.067 0-1.93-.846-1.93-1.888 0-1.043.863-1.888 1.93-1.888 1.066 0 1.93.845 1.93 1.888 0 1.042-.864 1.887-1.93 1.887zm11.155 0c-1.067 0-1.931-.846-1.931-1.888 0-1.043.864-1.888 1.93-1.888 1.067 0 1.93.845 1.93 1.888 0 1.042-.863 1.887-1.93 1.887zm11.005 0c-1.066 0-1.93-.846-1.93-1.888 0-1.043.864-1.888 1.93-1.888 1.066 0 1.93.845 1.93 1.888 0 1.042-.864 1.887-1.93 1.887z" fill="url(#b)"/></g><defs><linearGradient id="b" x1="0" y1="27" x2="61" y2="27" gradientUnits="userSpaceOnUse"><stop stop-color="#E5007D"/><stop offset="1" stop-color="#008BD2"/></linearGradient><clipPath id="a"><path fill="#fff" d="M0 0h61v54H0z"/></clipPath></defs></svg>