<svg width="35" height="60" fill="none" xmlns="http://www.w3.org/2000/svg"><g clip-path="url(#a)"><path d="M14.302 58.179H2.999a1.175 1.175 0 0 1-1.174-1.173v-8.602H11.9a.911.911 0 0 0 .912-.91v-17.48a.912.912 0 0 0-.912-.91H1.825v-2.602a8.55 8.55 0 0 1 4.982-7.752.91.91 0 0 0 .531-.827V2.856c0-.57.465-1.035 1.037-1.035h3.978c.572 0 1.037.465 1.037 1.035v9.015h-2.83a.912.912 0 1 0 0 1.822h2.83v4.23c0 .355.207.679.531.827a8.61 8.61 0 0 1 4.422 4.707.913.913 0 0 0 1.704-.65 10.455 10.455 0 0 0-4.833-5.45v-14.5A2.862 2.862 0 0 0 12.353 0H8.375a2.862 2.862 0 0 0-2.861 2.856v14.501A10.378 10.378 0 0 0 0 26.502v30.504A3 3 0 0 0 3 60h11.302a.912.912 0 1 0 0-1.821zm-3.315-27.254v15.658H1.825V30.925h9.162zm22.93 10.857c.723-1.533 1-3.293.804-5.087l-1.04-9.506a.912.912 0 0 0-.907-.812H17.648a.912.912 0 0 0-.907.812L15.7 36.695c-.196 1.794.082 3.553.804 5.087 1.448 3.077 4.444 5.15 7.794 5.472v10.925h-5.103a.912.912 0 1 0 0 1.821h12.16a.911.911 0 1 0 0-1.821h-5.232V47.254c3.35-.323 6.347-2.395 7.795-5.471zm-15.762-.774c-.58-1.23-.8-2.654-.641-4.115l.952-8.694h13.49l.54 4.94H21.352a.912.912 0 1 0 0 1.822h11.344l.212 1.932c.16 1.461-.062 2.884-.641 4.115a7.828 7.828 0 0 1-7.056 4.474 7.828 7.828 0 0 1-7.056-4.474z" fill="url(#b)"/></g><defs><linearGradient id="b" x1="0" y1="30" x2="34.783" y2="30" gradientUnits="userSpaceOnUse"><stop stop-color="#E5007D"/><stop offset="1" stop-color="#008BD2"/></linearGradient><clipPath id="a"><path fill="#fff" d="M0 0h34.783v60H0z"/></clipPath></defs></svg>