<svg width="58" height="54" fill="none" xmlns="http://www.w3.org/2000/svg"><g clip-path="url(#a)"><path d="M4.058 2.936c-.32-.328-.79-.486-1.288-.436-.604.062-1.155.411-1.512.96C.226 5.043-.192 6.992.081 8.948l.174 1.247a8.128 8.128 0 0 0 1.646 3.886l12.418 15.853a2.73 2.73 0 0 0 2.742.985l1.681-.384a.532.532 0 0 1 .504.154l1.46 1.54L6.37 46.891a4.183 4.183 0 0 0-1.194 2.945c0 1.113.424 2.159 1.194 2.946a4.017 4.017 0 0 0 5.76 0l14.265-14.55 13.45 14.19c.963.984 2.205 1.484 3.402 1.484 1.045 0 2.055-.382 2.812-1.156 1.624-1.66 1.48-4.51-.315-6.344L4.058 2.936zm6.663 48.403a2.05 2.05 0 0 1-2.94 0 2.136 2.136 0 0 1-.61-1.503c0-.567.217-1.101.61-1.502l14.314-14.639 2.911 3.072L10.721 51.34zm33.927-.031c-.847.865-2.367.718-3.38-.317l-18.456-19.47v-.001l-2.133-2.25a2.526 2.526 0 0 0-1.826-.786c-.182 0-.365.02-.545.061l-1.682.384a.746.746 0 0 1-.75-.27L3.459 12.808a6.066 6.066 0 0 1-1.227-2.9L2.057 8.66c-.201-1.44.095-2.868.834-4.027l41.436 43.209c1.023 1.046 1.167 2.6.32 3.466zM29.025 25.166a1.036 1.036 0 0 1 0-1.442l2.759-2.822-.544-.555c-1.884-1.925-1.884-5.059 0-6.984L44.019.3a.982.982 0 0 1 1.41 0c.39.398.39 1.044 0 1.442L32.652 14.805a2.947 2.947 0 0 0 0 4.099L33.9 20.18c.39.398.39 1.044 0 1.442l-3.464 3.542a.983.983 0 0 1-1.411 0v.001zm28.683-10.873-12.78 13.064a4.746 4.746 0 0 1-3.415 1.446 4.746 4.746 0 0 1-3.416-1.446l-.519-.53-2.827 2.883a.983.983 0 0 1-1.411-.001 1.036 1.036 0 0 1 0-1.443l3.534-3.603a.983.983 0 0 1 1.41 0l1.224 1.251a2.786 2.786 0 0 0 4.009 0l12.78-13.063a.983.983 0 0 1 1.41 0c.39.398.39 1.044 0 1.442zm-19.228.056 9.642-9.856a.982.982 0 0 1 1.41 0c.39.398.39 1.044 0 1.442l-9.64 9.857a.984.984 0 0 1-1.412 0 1.036 1.036 0 0 1 0-1.443zm4.072 4.164 9.642-9.857a.982.982 0 0 1 1.411 0c.39.398.39 1.044 0 1.442l-9.642 9.857a.983.983 0 0 1-1.41 0 1.036 1.036 0 0 1 0-1.442z" fill="url(#b)"/></g><defs><linearGradient id="b" x1="0" y1="27" x2="58" y2="27" gradientUnits="userSpaceOnUse"><stop stop-color="#E5007D"/><stop offset="1" stop-color="#008BD2"/></linearGradient><clipPath id="a"><path fill="#fff" d="M0 0h58v54H0z"/></clipPath></defs></svg>