<svg xmlns="http://www.w3.org/2000/svg" width="24" height="21" viewBox="0 0 24 21" fill="none">
  <path fill-rule="evenodd" clip-rule="evenodd" d="M7.92373 4.74851C7.92373 2.51863 9.7286 0.800953 11.9857 0.800953C14.2428 0.800953 16.0477 2.51863 16.0477 4.74851C16.0477 5.30282 15.896 6.03092 15.6234 6.86995C15.3528 7.70302 14.9713 8.62034 14.5312 9.54461C13.7553 11.1737 12.807 12.8036 11.9872 14.0044C11.1877 12.8233 10.2415 11.1967 9.46142 9.56548C9.01754 8.63733 8.63071 7.71448 8.35562 6.87678C8.07847 6.03282 7.92373 5.30183 7.92373 4.74851ZM11.9857 0C9.31372 0 7.12278 2.04929 7.12278 4.74851C7.12278 5.42746 7.30773 6.253 7.59465 7.12668C7.88362 8.00662 8.28522 8.96251 8.73884 9.91104C9.64536 11.8066 10.7727 13.6998 11.6603 14.9367C11.7354 15.0413 11.8561 15.1034 11.9849 15.1037C12.1136 15.104 12.2346 15.0423 12.3101 14.9381C13.227 13.6718 14.3547 11.7779 15.2543 9.889C15.7045 8.94375 16.1007 7.99305 16.3852 7.11743C16.6677 6.24775 16.8486 5.42646 16.8486 4.74851C16.8486 2.04929 14.6577 0 11.9857 0ZM11.9857 2.91772C10.9114 2.91772 10.0405 3.7886 10.0405 4.86289C10.0405 5.93718 10.9114 6.80806 11.9857 6.80806C13.06 6.80806 13.9309 5.93718 13.9309 4.86289C13.9309 3.7886 13.06 2.91772 11.9857 2.91772ZM9.23957 4.86289C9.23957 3.34625 10.4691 2.11677 11.9857 2.11677C13.5023 2.11677 14.7318 3.34625 14.7318 4.86289C14.7318 6.37953 13.5023 7.60901 11.9857 7.60901C10.4691 7.60901 9.23957 6.37953 9.23957 4.86289ZM7.74788 10.3393C7.83557 10.5424 7.74204 10.7781 7.53898 10.8658L3.90608 12.4345L1.19802 18.4793L5.83655 16.3793L7.26469 12.7265C7.34522 12.5205 7.5775 12.4188 7.7835 12.4994C7.98949 12.5799 8.09119 12.8122 8.01065 13.0182L6.64899 16.5009L11.4994 19.276V16.9343C11.4994 16.7132 11.6787 16.5338 11.8999 16.5338C12.1211 16.5338 12.3004 16.7132 12.3004 16.9343V19.2794L17.2094 16.4984L15.874 13.0157C15.7948 12.8092 15.898 12.5776 16.1045 12.4984C16.311 12.4192 16.5426 12.5225 16.6218 12.729L18.021 16.3779L22.7887 18.484L19.9812 12.4334L16.4569 10.8639C16.2548 10.774 16.164 10.5372 16.2539 10.3352C16.3439 10.1331 16.5806 10.0423 16.7827 10.1323L20.4442 11.7628C20.5326 11.8022 20.6038 11.8722 20.6446 11.9601L23.9628 19.1114C24.033 19.2627 24.0021 19.4415 23.8853 19.5605C23.7685 19.6795 23.5902 19.7137 23.4377 19.6463L17.7291 17.1245L12.0973 20.315C11.9743 20.3846 11.8237 20.3843 11.701 20.3141L6.12893 17.1261L0.565659 19.6448C0.414046 19.7134 0.235781 19.6812 0.117867 19.5637C-4.72659e-05 19.4463 -0.0330314 19.2681 0.0350121 19.1162L3.23882 11.9649C3.27979 11.8734 3.35355 11.8007 3.44554 11.7609L7.22146 10.1304C7.42451 10.0428 7.6602 10.1363 7.74788 10.3393Z" fill="url(#paint0_linear_72_393)"/>
  <defs>
    <linearGradient id="paint0_linear_72_393" x1="7.91623" y1="20.367" x2="22.7069" y2="12.1544" gradientUnits="userSpaceOnUse">
      <stop stop-color="#E3077F"/>
      <stop offset="1" stop-color="#0289CC"/>
    </linearGradient>
  </defs>
</svg>