<svg width="16" height="17" viewBox="0 0 16 17" fill="none" xmlns="http://www.w3.org/2000/svg">
<g id="Frame 54">
<path id="Rectangle 28 (Stroke)" fill-rule="evenodd" clip-rule="evenodd" d="M0 5.5625C0 3.59499 1.56443 2 3.49425 2H12.5057C14.4356 2 16 3.59499 16 5.5625V13.4375C16 15.405 14.4356 17 12.5057 17H3.49425C1.56443 17 0 15.405 0 13.4375V5.5625ZM3.49425 3.125C2.17385 3.125 1.10345 4.21631 1.10345 5.5625V13.4375C1.10345 14.7837 2.17385 15.875 3.49425 15.875H12.5057C13.8262 15.875 14.8966 14.7837 14.8966 13.4375V5.5625C14.8966 4.21631 13.8262 3.125 12.5057 3.125H3.49425Z" fill="black"/>
<path id="Rectangle 29 (Stroke)" fill-rule="evenodd" clip-rule="evenodd" d="M10 11.8C10 11.3582 10.3582 11 10.8 11H13.2C13.6418 11 14 11.3582 14 11.8V14.2C14 14.6418 13.6418 15 13.2 15H10.8C10.3582 15 10 14.6418 10 14.2V11.8ZM11.2 12.2V13.8H12.8V12.2H11.2Z" fill="black"/>
<path id="Vector 1 (Stroke)" fill-rule="evenodd" clip-rule="evenodd" d="M4.87356 0.5C5.17827 0.5 5.42529 0.740563 5.42529 1.03731V3.63433C5.42529 3.93108 5.17827 4.17164 4.87356 4.17164C4.56885 4.17164 4.32184 3.93108 4.32184 3.63433V1.03731C4.32184 0.740563 4.56885 0.5 4.87356 0.5ZM11.1264 0.5C11.4311 0.5 11.6782 0.740563 11.6782 1.03731V3.63433C11.6782 3.93108 11.4311 4.17164 11.1264 4.17164C10.8217 4.17164 10.5747 3.93108 10.5747 3.63433V1.03731C10.5747 0.740563 10.8217 0.5 11.1264 0.5ZM0 6.96269C0 6.66594 0.247015 6.42537 0.551724 6.42537H15.4483C15.753 6.42537 16 6.66594 16 6.96269C16 7.25944 15.753 7.5 15.4483 7.5H0.551724C0.247015 7.5 0 7.25944 0 6.96269Z" fill="black"/>
</g>
</svg>
