<svg width="21" height="21" viewBox="0 0 21 21" fill="none" xmlns="http://www.w3.org/2000/svg">
<g id="Frame 59">
<circle id="Ellipse 15" cx="10.5" cy="10.5" r="9.5" stroke="#219653" stroke-width="2"/>
<path id="Ellipse 16" d="M8 8.5C8 8.08887 8.10139 7.68409 8.2952 7.32151C8.489 6.95893 8.76923 6.64974 9.11107 6.42133C9.45291 6.19292 9.84581 6.05234 10.255 6.01204C10.6641 5.97174 11.0769 6.03297 11.4567 6.1903C11.8365 6.34763 12.1717 6.59621 12.4325 6.91402C12.6933 7.23182 12.8718 7.60905 12.952 8.01227C13.0322 8.4155 13.0117 8.83229 12.8924 9.22571C12.773 9.61914 12.5585 9.97706 12.2678 10.2678C11.6785 10.6785 11 11.3 11 12.5" stroke="#219653" stroke-width="2" stroke-linecap="round"/>
<circle id="Ellipse 17" cx="11" cy="15" r="1" fill="#219653"/>
</g>
</svg>
