<svg xmlns="http://www.w3.org/2000/svg" width="19" height="19" viewBox="0 0 19 19" fill="none">
    <path fill-rule="evenodd" clip-rule="evenodd" d="M2.90145 1.1802C3.01384 1.0959 3.20948 0.972733 3.41246 0.888594C3.61253 0.805664 3.73931 0.794247 3.79669 0.80375C3.80709 0.812033 3.82921 0.830201 3.86437 0.864706C3.9308 0.929893 4.01574 1.02489 4.11708 1.14826C4.31887 1.3939 4.56477 1.72629 4.82561 2.09675C5.34221 2.83043 5.9014 3.69049 6.2618 4.26382C6.32948 4.39518 6.41751 4.62126 6.45559 4.86091C6.49602 5.1153 6.47034 5.31871 6.38593 5.45134C6.05512 5.97118 5.52907 6.9506 5.31028 7.36915C5.23853 7.50641 5.25234 7.67274 5.34576 7.79628C6.24404 8.98433 8.66804 11.827 11.2057 13.7128C11.3355 13.8092 11.5104 13.8182 11.6494 13.7356C12.4645 13.2509 13.33 12.7974 13.6855 12.6186C13.8046 12.5814 13.9931 12.5379 14.183 12.5249C14.404 12.5097 14.5412 12.5419 14.5986 12.5802C14.9373 12.806 17.0968 14.3091 18.1394 15.036C18.1448 15.0398 18.1985 15.0782 18.1808 15.2589C18.1637 15.4348 18.0794 15.6717 17.9182 15.9197C17.7617 16.1605 17.5563 16.4422 17.361 16.709L17.3298 16.7516C17.2558 16.8526 17.1824 16.9528 17.1151 17.0467L13.9532 14.9733C13.7682 14.852 13.5199 14.9036 13.3986 15.0886C13.2773 15.2736 13.3289 15.5219 13.5139 15.6432L16.6132 17.6756C16.3337 17.9093 15.8622 18.177 15.2363 18.1982C14.9034 18.2095 14.4128 18.0908 13.7736 17.8172C13.1442 17.5478 12.4085 17.1448 11.5989 16.6297C9.98024 15.6 8.09503 14.1409 6.21832 12.4633C4.37916 10.8192 3.01165 8.71952 2.10642 6.93371C1.65462 6.04241 1.32103 5.23532 1.10313 4.61121C0.994088 4.29887 0.915224 4.03581 0.865016 3.83336C0.839887 3.73204 0.822766 3.64922 0.812484 3.58512C0.807364 3.5532 0.804262 3.52791 0.802595 3.50871C0.801771 3.49923 0.801362 3.49196 0.801186 3.48671C0.801017 3.48166 0.801093 3.47933 0.801092 3.47933L0.801091 3.47936C0.807361 3.3226 0.919718 3.08004 1.13053 2.79873C1.21286 2.68887 1.30195 2.58389 1.38897 2.48921L3.3835 5.56938C3.50374 5.75507 3.75175 5.80812 3.93744 5.68788C4.12312 5.56764 4.17618 5.31964 4.05594 5.13395L1.79568 1.64342C1.73278 1.54629 1.63094 1.4811 1.51639 1.46465C1.40185 1.4482 1.28578 1.4821 1.19809 1.55761C1.00827 1.72107 0.728471 1.99938 0.489458 2.31832C0.262524 2.62115 0.0172447 3.03188 0.000626309 3.44734C-0.00545204 3.5993 0.0333953 3.80818 0.0874672 4.0262C0.145108 4.25862 0.231875 4.54609 0.346799 4.87527C0.576842 5.53417 0.924552 6.374 1.39187 7.29591C2.32489 9.13653 3.74695 11.3285 5.68441 13.0605C7.58434 14.7589 9.50438 16.2468 11.1689 17.3056C12.0007 17.8348 12.7761 18.2616 13.4583 18.5537C14.1308 18.8415 14.7524 19.0161 15.2635 18.9988C16.5028 18.9568 17.3238 18.2009 17.5656 17.8064C17.6437 17.679 17.8014 17.4636 17.9962 17.1976L18.0074 17.1822C18.1999 16.9192 18.419 16.6192 18.5899 16.3563C18.8007 16.032 18.9453 15.6733 18.9781 15.3368C19.0106 15.0052 18.9355 14.6145 18.5976 14.3789C17.5611 13.6562 15.3908 12.1455 15.0429 11.9136C14.757 11.723 14.3935 11.7075 14.1281 11.7257C13.8459 11.7451 13.5763 11.8103 13.4066 11.8669C13.3886 11.8729 13.3711 11.8801 13.3541 11.8886C13.036 12.0477 12.2561 12.4544 11.4723 12.9104C9.2285 11.1906 7.08689 8.73004 6.13941 7.51441C6.39145 7.04041 6.79899 6.29441 7.06179 5.88144C7.29783 5.51052 7.30076 5.07495 7.24677 4.73519C7.19165 4.3883 7.06667 4.07178 6.96342 3.87677C6.9588 3.86804 6.95386 3.85949 6.94861 3.85113C6.58387 3.27042 6.01192 2.39009 5.48064 1.63554C5.21552 1.25902 4.95644 0.907968 4.7361 0.639744C4.62637 0.506176 4.52096 0.386638 4.42548 0.292937C4.3461 0.215029 4.22334 0.102789 4.08192 0.0528755C3.73761 -0.068645 3.35979 0.0432256 3.10571 0.148548C2.82898 0.263254 2.57543 0.423332 2.42079 0.539314C2.24381 0.672045 2.20794 0.923112 2.34068 1.10009C2.47341 1.27706 2.72447 1.31293 2.90145 1.1802ZM10.411 1.36332C10.4235 1.14245 10.6127 0.973588 10.8336 0.986143C12.6301 1.08827 14.3275 1.8431 15.6066 3.10874C16.8857 4.37437 17.6584 6.06365 17.7795 7.85899C17.7944 8.07971 17.6276 8.27071 17.4068 8.2856C17.1861 8.30049 16.9951 8.13363 16.9802 7.91291C16.8723 6.31241 16.1834 4.80647 15.0431 3.67819C13.9028 2.54991 12.3897 1.877 10.7881 1.78596C10.5673 1.7734 10.3984 1.58418 10.411 1.36332ZM10.1951 3.81932C10.2091 3.59855 10.3995 3.43098 10.6203 3.44504C11.8346 3.52238 12.9799 4.03681 13.8443 4.8932C14.7087 5.7496 15.2337 6.89003 15.3224 8.10359C15.3385 8.32423 15.1727 8.51615 14.9521 8.53226C14.7314 8.54837 14.5395 8.38258 14.5234 8.16195C14.4489 7.14145 14.0073 6.18245 13.2804 5.4623C12.5536 4.74215 11.5905 4.30956 10.5694 4.24452C10.3486 4.23046 10.181 4.04009 10.1951 3.81932Z" fill="url(#paint0_linear_72_387)"/>
    <defs>
      <linearGradient id="paint0_linear_72_387" x1="6.26207" y1="19" x2="18.7917" y2="13.1006" gradientUnits="userSpaceOnUse">
        <stop stop-color="#E3077F"/>
        <stop offset="1" stop-color="#0289CC"/>
      </linearGradient>
    </defs>
  </svg>