<svg width="1584" height="209" viewBox="0 0 1584 209" fill="none" xmlns="http://www.w3.org/2000/svg">
    <path fill-rule="evenodd" clip-rule="evenodd"
        d="M85.964 165.892C76.7311 153.647 67.5758 141.44 58.4998 129.195C56.7788 126.574 55.0569 123.953 53.3359 121.292C52.8659 121.292 52.0054 120.744 50.7534 119.649C49.9705 118.71 48.8755 118.944 47.4666 120.353V122.701C54.5085 132.599 60.2993 140.188 64.8373 145.47C71.8793 153.647 78.9212 160.494 85.9632 165.892M68.5924 83.9697C69.3753 81.1528 69.7668 77.7883 69.7668 73.8755C69.7668 69.4936 69.1016 65.2686 67.772 61.1996C66.4415 57.1307 64.4467 53.3756 61.7859 49.9327C57.4039 44.1419 52.9836 40.2691 48.5233 38.3127C44.0637 36.3571 37.4516 35.3789 28.6878 35.3789C25.0888 35.3789 23.2893 36.943 23.2893 40.073V108.382C23.2893 109.478 23.9152 110.494 25.1672 111.434C29.7052 111.434 33.3051 111.316 35.9651 111.082C38.626 110.846 41.3636 110.182 44.1806 109.086C49.6584 107.834 54.6655 104.705 59.2043 99.6971C63.7423 94.6892 66.8714 89.4467 68.5924 83.9697ZM77.5132 92.1852C80.8 87.0212 82.4426 80.7613 82.4426 73.4064C82.4426 66.0515 80.8 59.6347 77.5132 54.1577C75.1661 50.2457 73.0536 47.3511 71.1748 45.4731C70.0798 44.2212 66.8714 41.8733 61.5505 38.4312C59.9855 37.9613 59.0465 37.7268 58.7335 37.7268C58.7335 38.1967 58.812 38.6657 58.9689 39.1348C64.915 43.9858 69.4922 49.3852 72.7014 55.3312C75.909 61.2781 77.5132 67.8501 77.5132 75.049C76.8872 80.526 75.1661 85.9253 72.3492 91.2454C70.3143 95.0013 67.0283 99.8523 62.4903 105.799C65.6194 104.704 68.9847 102.122 72.5837 98.0528C74.9308 95.2359 76.5742 93.2811 77.5132 92.1852ZM12.0223 190.306C12.0223 191.245 11.3571 191.871 10.0267 192.184C8.69706 192.496 7.79731 192.653 7.3274 192.653C4.35437 192.653 2.86786 192.027 2.86786 190.776C2.86786 189.993 3.1024 189.211 3.57231 188.428C4.19829 187.489 4.51129 186.707 4.51129 186.081V35.848C4.51129 35.3789 4.35437 34.7529 4.04138 33.97C3.25931 31.9351 2.86786 30.5271 2.86786 29.745C2.86786 28.493 4.19746 27.867 6.85833 27.867C10.3013 27.867 12.0231 28.9621 12.0231 31.1539L12.0223 190.306ZM136.667 195.705H130.095C121.801 195.705 113.663 193.749 105.682 189.837C99.2658 186.708 92.1454 181.778 84.3206 175.049C80.7207 171.919 74.2263 165.737 64.8373 156.504C54.9784 144.923 45.7447 132.874 37.1378 120.355C34.7907 119.103 32.4437 118.477 30.0958 118.477H27.2789C24.6189 118.79 23.2884 120.199 23.2884 122.702V185.142C23.2884 185.768 23.6014 186.551 24.2274 187.489C24.8534 188.428 25.1664 189.601 25.1664 191.01C25.1664 191.167 24.8542 191.402 24.2274 191.715C22.9754 192.185 21.5674 192.419 20.0024 192.419C17.1855 192.419 15.7774 191.872 15.7774 190.777V32.0929C15.7774 31.1539 16.4034 30.2149 17.6554 29.2759C18.9073 28.3369 20.1593 27.867 21.4105 27.867C36.4333 27.867 47.4666 28.8845 54.5085 30.9185C68.4364 35.0267 78.9212 43.3206 85.9632 55.8796C88.4671 60.4176 89.7191 66.0907 89.7191 72.8196C89.7191 80.2138 88.3503 86.3952 85.611 91.4424C82.8725 96.4503 79.5464 100.675 75.6344 104.118C71.7224 107.6 67.3405 110.495 62.4895 112.843C61.2375 113.938 60.6115 115.268 60.6115 116.833C60.6115 117.929 61.0814 119.142 62.0204 120.394C71.8793 135.926 82.7556 149.892 94.6486 162.294C108.732 177.044 122.739 187.841 136.667 194.766V195.705H136.667ZM119.297 165.893C110.065 153.648 100.909 141.441 91.8333 129.196C90.1114 126.575 88.3904 123.954 86.6693 121.293C86.1994 121.293 85.3389 120.745 84.0869 119.649C83.304 118.71 82.2089 118.945 80.8 120.354V122.702C87.842 132.6 93.632 140.189 98.1708 145.471C105.213 153.648 112.255 160.495 119.297 165.893H119.297ZM110.847 92.1861C114.134 87.0221 115.777 80.7622 115.777 73.4072C115.777 66.0523 114.134 59.6355 110.847 54.1585C108.5 50.2465 106.388 47.3519 104.509 45.474C103.414 44.222 100.206 41.8741 94.8848 38.432C93.3198 37.9621 92.3808 37.7276 92.0678 37.7276C92.0678 38.1975 92.1463 38.6666 92.3032 39.1356C98.2492 43.9866 102.826 49.386 106.035 55.332C109.242 61.2789 110.847 67.851 110.847 75.0498C110.221 80.5268 108.5 85.9262 105.683 91.2462C103.648 95.0022 100.362 99.8532 95.8237 105.8C98.9529 104.705 102.317 102.123 105.917 98.0536C108.264 95.2367 109.908 93.2811 110.847 92.1852L110.847 92.1861ZM56.6235 98.2656C56.7771 98.1037 56.929 97.9393 57.0809 97.7715C60.9095 93.5474 64.2147 88.6672 65.8456 83.1568C66.7095 80.2372 66.9014 76.9061 66.9014 73.8763C66.9014 69.8591 66.2963 65.9096 65.0485 62.0919C63.8107 58.3059 61.9286 54.8379 59.5098 51.6746C58.6267 50.5194 57.6618 49.3326 56.6235 48.1757V98.2656ZM26.2665 108.566C29.4047 108.557 32.6031 108.501 35.7139 108.226C36.4175 108.165 37.1294 108.049 37.8439 107.9V38.6849C34.6564 38.3335 31.4388 38.2467 28.6886 38.2467C27.0861 38.2467 26.1571 38.3703 26.1571 40.0738V108.378C26.1696 108.431 26.2105 108.496 26.2665 108.566ZM71.8109 35.883C78.5932 40.5546 84.1687 46.7518 88.4705 54.4857C91.5612 60.042 92.5878 66.5297 92.5878 72.8188C92.5878 79.7105 91.4602 86.7016 88.1308 92.8129C85.3706 97.8784 81.8625 102.436 77.5366 106.264C75.717 107.875 73.8065 109.365 71.8159 110.734C73.6788 110.388 75.5776 109.839 77.514 109.085C82.9918 107.833 87.9989 104.704 92.5377 99.6962C97.0757 94.6883 100.206 89.4459 101.927 83.9689C102.71 81.152 103.1 77.7875 103.1 73.8746C103.1 69.4927 102.435 65.2677 101.105 61.1988C99.775 57.1299 97.7802 53.3748 95.1201 49.9319C90.7382 44.141 86.3171 40.2683 81.8575 38.3118C79.2467 37.1667 75.8973 36.3571 71.8117 35.8822L71.8109 35.883ZM49.1109 103.989V41.8174C48.5416 41.4919 47.9615 41.1972 47.3723 40.9393C46.7329 40.6589 46.0577 40.4068 45.3549 40.1806V105.663C46.6628 105.177 47.9131 104.622 49.1109 103.989ZM170.001 195.705H163.428C155.134 195.705 146.996 193.749 139.015 189.837C132.599 186.708 125.479 181.778 117.654 175.049C114.054 171.919 107.56 165.737 98.1708 156.504C88.3119 144.923 79.079 132.874 70.4712 120.355C68.3821 119.24 66.293 118.622 64.203 118.499C64.2681 118.599 64.3282 118.69 64.38 118.764C74.3215 133.156 84.6027 147.649 96.7202 160.312C108.63 172.757 122.437 184.489 137.944 192.199L139.534 192.99V198.573H130.095C121.09 198.573 112.499 196.362 104.422 192.413C96.524 188.55 89.0748 182.95 82.4451 177.217C75.4675 171.182 69.0473 165.236 62.739 158.458C60.6374 156.2 58.6033 153.888 56.6227 151.531V185.143C56.6227 185.769 56.9357 186.552 57.5617 187.49C58.1877 188.429 58.5007 189.602 58.5007 191.011C58.5007 191.168 58.1885 191.403 57.5617 191.716C56.3097 192.186 54.9017 192.42 53.3367 192.42C50.5197 192.42 49.1117 191.873 49.1117 190.778V142.095C47.843 140.421 46.5927 138.735 45.3558 137.037V190.308C45.3558 191.247 44.6905 191.873 43.3601 192.186C42.0305 192.499 41.1308 192.655 40.6608 192.655C37.6878 192.655 36.2013 192.029 36.2013 190.778C36.2013 189.995 36.4358 189.213 36.9058 188.43C37.5317 187.492 37.8447 186.709 37.8447 186.083V126.428C36.9575 125.147 36.0744 123.865 35.1914 122.582C33.593 121.816 31.8912 121.346 30.0983 121.346C29.2295 121.346 28.313 121.29 27.4492 121.341C26.395 121.403 26.158 121.653 26.158 122.704V185.058C26.2289 185.302 26.4893 185.712 26.6153 185.901C27.6319 187.426 28.0359 189.197 28.0359 191.013C28.0359 192.699 26.7748 193.735 25.3759 194.346C23.684 195.083 21.8336 195.289 20.0041 195.289C17.8782 195.289 15.1322 194.917 13.7651 193.288C13.0005 194.125 11.908 194.69 10.6844 194.978C9.66359 195.219 8.37572 195.523 7.32823 195.523C4.225 195.523 0.000834651 194.733 0.000834651 190.778C0.000834651 189.389 0.40731 188.07 1.14931 186.898C1.28286 186.688 1.55913 186.243 1.64343 185.976V35.8713C1.62006 35.6326 1.45897 35.2403 1.37133 35.0183C0.777894 33.5059 0 31.3817 0 29.7458C0 25.9565 3.78264 25 6.85749 25C9.93234 25 13.0698 25.9256 14.3201 28.4863C14.7892 27.9263 15.3442 27.4263 15.936 26.9823C17.5402 25.7796 19.3831 25 21.4121 25C31.443 25 44.4251 25.2312 54.3132 27.8854C54.4568 27.8729 54.602 27.867 54.7456 27.867C69.7685 27.867 80.8017 28.8845 87.8437 30.9185C101.771 35.0267 112.256 43.3206 119.298 55.8796C121.802 60.4176 123.054 66.0907 123.054 72.8196C123.054 80.2138 121.685 86.3952 118.947 91.4424C116.208 96.4503 112.882 100.675 108.97 104.118C105.058 107.6 100.676 110.495 95.8254 112.843C94.5726 113.938 93.9475 115.268 93.9475 116.833C93.9475 117.929 94.4174 119.142 95.3555 120.394C105.214 135.926 116.091 149.892 127.984 162.294C142.068 177.044 156.074 187.841 170.002 194.766L170.001 195.705Z"
        fill="#EAEFF3" />
    <path
        d="M212.167 199V29.71H246.234C257.52 29.71 266.855 31.2427 274.24 34.308C281.625 37.234 287.059 42.041 290.542 48.729C294.165 55.2777 295.976 63.9163 295.976 74.645C295.976 81.1937 295.279 87.185 293.886 92.619C292.493 97.9137 290.263 102.442 287.198 106.204C284.133 109.827 280.092 112.474 275.076 114.146L299.111 199H276.33L254.176 119.58H235.784V199H212.167ZM235.784 102.651H244.771C251.459 102.651 256.893 101.815 261.073 100.143C265.253 98.471 268.318 95.6147 270.269 91.574C272.22 87.5333 273.195 81.8903 273.195 74.645C273.195 64.7523 271.384 57.6463 267.761 53.327C264.138 48.8683 256.963 46.639 246.234 46.639H235.784V102.651ZM320.545 199V29.71H386.171V47.266H344.162V103.278H378.229V119.998H344.162V182.071H386.589V199H320.545ZM405.655 199V29.71H429.272V102.86H472.744V29.71H496.361V199H472.744V119.789H429.272V199H405.655ZM513.614 199L549.562 29.71H572.343L608.5 199H586.137L578.404 156.364H543.919L535.768 199H513.614ZM547.054 139.435H575.269L561.057 63.15L547.054 139.435ZM625.677 199V29.71H664.551C672.214 29.71 678.832 30.546 684.406 32.218C690.118 33.89 694.856 36.4677 698.618 39.951C702.38 43.4343 705.166 47.893 706.978 53.327C708.789 58.6217 709.695 64.8917 709.695 72.137C709.695 79.1037 708.789 85.1647 706.978 90.32C705.306 95.336 702.658 99.307 699.036 102.233C695.552 105.159 691.024 107.04 685.451 107.876C692.278 109.409 697.782 112.056 701.962 115.818C706.142 119.441 709.207 124.178 711.158 130.03C713.248 135.743 714.293 142.64 714.293 150.721C714.293 157.966 713.457 164.585 711.785 170.576C710.113 176.567 707.465 181.653 703.843 185.833C700.359 190.013 695.831 193.287 690.258 195.656C684.824 197.885 678.345 199 670.821 199H625.677ZM649.294 182.071H665.178C675.767 182.071 682.803 179.633 686.287 174.756C689.909 169.74 691.721 161.728 691.721 150.721C691.721 143.615 690.745 137.693 688.795 132.956C686.983 128.079 683.988 124.457 679.808 122.088C675.767 119.58 670.263 118.326 663.297 118.326H649.294V182.071ZM649.294 100.352H663.297C669.985 100.352 675.21 99.4463 678.972 97.635C682.734 95.6843 685.381 92.619 686.914 88.439C688.446 84.259 689.213 78.825 689.213 72.137C689.213 64.3343 688.028 58.6913 685.66 55.208C683.291 51.7247 679.599 49.565 674.583 48.729C669.567 47.7537 663.018 47.266 654.937 47.266H649.294V100.352ZM783.039 199V29.71H817.106C828.392 29.71 837.727 31.2427 845.112 34.308C852.497 37.234 857.931 42.041 861.414 48.729C865.037 55.2777 866.848 63.9163 866.848 74.645C866.848 81.1937 866.151 87.185 864.758 92.619C863.365 97.9137 861.135 102.442 858.07 106.204C855.005 109.827 850.964 112.474 845.948 114.146L869.983 199H847.202L825.048 119.58H806.656V199H783.039ZM806.656 102.651H815.643C822.331 102.651 827.765 101.815 831.945 100.143C836.125 98.471 839.19 95.6147 841.141 91.574C843.092 87.5333 844.067 81.8903 844.067 74.645C844.067 64.7523 842.256 57.6463 838.633 53.327C835.01 48.8683 827.835 46.639 817.106 46.639H806.656V102.651ZM891.417 199V29.71H957.043V47.266H915.034V103.278H949.101V119.998H915.034V182.071H957.461V199H891.417ZM1018.95 200.881C1006.97 200.881 997.636 198.373 990.948 193.357C984.4 188.341 979.802 181.583 977.154 173.084C974.646 164.585 973.392 155.11 973.392 144.66V84.886C973.392 73.4607 974.646 63.4983 977.154 54.999C979.802 46.4997 984.4 39.951 990.948 35.353C997.636 30.6157 1006.97 28.247 1018.95 28.247C1029.54 28.247 1037.9 30.1977 1044.03 34.099C1050.3 38.0003 1054.76 43.5737 1057.41 50.819C1060.2 58.0643 1061.59 66.7727 1061.59 76.944V90.32H1039.23V78.407C1039.23 72.137 1038.88 66.6333 1038.18 61.896C1037.63 57.0193 1035.95 53.2573 1033.17 50.61C1030.38 47.9627 1025.71 46.639 1019.16 46.639C1012.48 46.639 1007.6 48.102 1004.53 51.028C1001.47 53.8147 999.448 57.8553 998.472 63.15C997.636 68.3053 997.218 74.3663 997.218 81.333V148.422C997.218 156.921 997.915 163.679 999.308 168.695C1000.7 173.572 1003 177.055 1006.21 179.145C1009.41 181.235 1013.73 182.28 1019.16 182.28C1025.57 182.28 1030.17 180.887 1032.96 178.1C1035.74 175.174 1037.49 171.203 1038.18 166.187C1038.88 161.171 1039.23 155.319 1039.23 148.631V136.091H1061.59V148.631C1061.59 158.942 1060.34 168.068 1057.83 176.01C1055.32 183.813 1051 189.943 1044.87 194.402C1038.74 198.721 1030.1 200.881 1018.95 200.881ZM1127.35 200.881C1115.93 200.881 1106.8 198.652 1099.97 194.193C1093.15 189.734 1088.27 183.395 1085.34 175.174C1082.42 166.814 1080.95 157.061 1080.95 145.914V81.751C1080.95 70.6043 1082.42 61.06 1085.34 53.118C1088.41 45.0367 1093.28 38.906 1099.97 34.726C1106.8 30.4067 1115.93 28.247 1127.35 28.247C1138.78 28.247 1147.83 30.4067 1154.52 34.726C1161.21 39.0453 1166.02 45.176 1168.94 53.118C1172.01 61.06 1173.54 70.6043 1173.54 81.751V146.123C1173.54 157.13 1172.01 166.744 1168.94 174.965C1166.02 183.186 1161.21 189.595 1154.52 194.193C1147.83 198.652 1138.78 200.881 1127.35 200.881ZM1127.35 182.28C1133.62 182.28 1138.36 181.026 1141.56 178.518C1144.77 175.871 1146.93 172.248 1148.04 167.65C1149.16 162.913 1149.71 157.409 1149.71 151.139V76.944C1149.71 70.674 1149.16 65.3097 1148.04 60.851C1146.93 56.253 1144.77 52.7697 1141.56 50.401C1138.36 47.893 1133.62 46.639 1127.35 46.639C1121.08 46.639 1116.27 47.893 1112.93 50.401C1109.73 52.7697 1107.57 56.253 1106.45 60.851C1105.34 65.3097 1104.78 70.674 1104.78 76.944V151.139C1104.78 157.409 1105.34 162.913 1106.45 167.65C1107.57 172.248 1109.73 175.871 1112.93 178.518C1116.27 181.026 1121.08 182.28 1127.35 182.28ZM1226.22 199L1188.39 29.71H1210.55L1237.3 154.483L1262.8 29.71H1284.32L1246.91 199H1226.22ZM1302.27 199V29.71H1367.9V47.266H1325.89V103.278H1359.96V119.998H1325.89V182.071H1368.32V199H1302.27ZM1387.38 199V29.71H1421.45C1432.74 29.71 1442.07 31.2427 1449.46 34.308C1456.84 37.234 1462.28 42.041 1465.76 48.729C1469.38 55.2777 1471.19 63.9163 1471.19 74.645C1471.19 81.1937 1470.5 87.185 1469.1 92.619C1467.71 97.9137 1465.48 102.442 1462.41 106.204C1459.35 109.827 1455.31 112.474 1450.29 114.146L1474.33 199H1451.55L1429.39 119.58H1411V199H1387.38ZM1411 102.651H1419.99C1426.68 102.651 1432.11 101.815 1436.29 100.143C1440.47 98.471 1443.54 95.6147 1445.49 91.574C1447.44 87.5333 1448.41 81.8903 1448.41 74.645C1448.41 64.7523 1446.6 57.6463 1442.98 53.327C1439.36 48.8683 1432.18 46.639 1421.45 46.639H1411V102.651ZM1521.68 199V139.226L1485.1 29.71H1507.05L1532.96 111.429L1558.46 29.71H1580.62L1544.25 139.226V199H1521.68Z"
        fill="#EAEFF3" />
</svg>